<svg version="1.1" preserveAspectRatio="none" xmlns="http://www.w3.org/2000/svg" width="500" height="500" viewBox="0 0 500 500"><rect width="100%" height="50%" fill="none" fill-opacity="1"/><svg viewBox="76.0526 42.8908 390.5739 390.166" width="333" height="332.6522279138468" x="83.5px" y="83.6739px" xmlns="http://www.w3.org/2000/svg" xmlns:xlink="http://www.w3.org/1999/xlink" preserveAspectRatio="none"><defs></defs><style>.companyName {fill:#E3E3E3;fill-opacity:1;}.icon1 {fill:#F1EC40;fill-opacity:1;}.icon2 {fill:#555555;fill-opacity:1;}.icon3 {fill:#AAAAAA;fill-opacity:1;}.icon3-str {stroke:#AAAAAA;stroke-opacity:1;}.text {fill:#E3E3E3;fill-opacity:1;}</style><g opacity="1" transform="rotate(0 193.3379 414.0568)">
<svg width="156.0034" height="19" x="193.3379" y="414.0568" version="1.1" preserveAspectRatio="none" viewBox="1.36 -28 232.51999999999998 28.32">
  <g transform="matrix(1 0 0 1 0 0)" class="text"><path id="id-6izo4zJp11" d="M11.52-2.40L11.52-2.40Q15.56-2.40 17.32-5.76L17.32-5.76L20.60-5.76Q19.56-3.04 17.30-1.36Q15.04 0.32 11.48 0.32L11.48 0.32Q6.96 0.32 4.12-2.68L4.12-2.68Q1.36-5.60 1.36-10L1.36-10Q1.36-14.44 4-17.32L4-17.32Q6.80-20.32 11.28-20.32L11.28-20.32Q15.76-20.32 18.56-17.32L18.56-17.32Q21.20-14.44 21.20-10L21.20-10L21.20-8.80L4.44-8.80Q4.76-6.04 6.64-4.24L6.64-4.24Q8.56-2.40 11.52-2.40ZM11.28-17.60L11.28-17.60Q8.52-17.60 6.64-15.88L6.64-15.88Q4.88-14.24 4.48-11.60L4.48-11.60L18.08-11.60Q17.68-14.24 15.92-15.88L15.92-15.88Q14.04-17.60 11.28-17.60Z M31.88-28L31.88 0L28.88 0L28.88-28L31.88-28Z M50-2.40L50-2.40Q54.04-2.40 55.80-5.76L55.80-5.76L59.08-5.76Q58.04-3.04 55.78-1.36Q53.52 0.32 49.96 0.32L49.96 0.32Q45.44 0.32 42.60-2.68L42.60-2.68Q39.84-5.60 39.84-10L39.84-10Q39.84-14.44 42.48-17.32L42.48-17.32Q45.28-20.32 49.76-20.32L49.76-20.32Q54.24-20.32 57.04-17.32L57.04-17.32Q59.68-14.44 59.68-10L59.68-10L59.68-8.80L42.92-8.80Q43.24-6.04 45.12-4.24L45.12-4.24Q47.04-2.40 50-2.40ZM49.76-17.60L49.76-17.60Q47-17.60 45.12-15.88L45.12-15.88Q43.36-14.24 42.96-11.60L42.96-11.60L56.56-11.60Q56.16-14.24 54.40-15.88L54.40-15.88Q52.52-17.60 49.76-17.60Z M76.60-2.40L76.60-2.40Q78.52-2.40 80-3.48Q81.48-4.56 82.16-6.28L82.16-6.28L85.40-6.28Q84.48-3.32 82.04-1.52L82.04-1.52Q79.48 0.32 75.96 0.32L75.96 0.32Q71.56 0.32 68.80-2.68L68.80-2.68Q66.12-5.60 66.12-10L66.12-10Q66.12-14.40 68.80-17.32L68.80-17.32Q71.56-20.32 75.96-20.32L75.96-20.32Q79.48-20.32 82.04-18.48L82.04-18.48Q84.48-16.68 85.40-13.72L85.40-13.72L82.16-13.72Q81.48-15.44 80-16.52Q78.52-17.60 76.60-17.60Q74.68-17.60 73.34-17Q72-16.40 71.08-15.36L71.08-15.36Q69.12-13.20 69.12-10L69.12-10Q69.12-6.80 71.08-4.64L71.08-4.64Q73.08-2.40 76.60-2.40Z M98.28 0L95.28 0L95.28-17.36L91.20-17.36L91.20-20L95.28-20L95.28-27.16L98.28-27.16L98.28-20L102.88-20L102.88-17.36L98.28-17.36L98.28 0Z M120.52-20.32L120.72-20.32L120.72-17.32L120.36-17.32Q117.12-17.32 115.08-14.72L115.08-14.72Q113.16-12.24 113.16-8.80L113.16-8.80L113.16 0L110.16 0L110.16-20L113.16-20L113.16-15.08Q114.12-18.20 117.32-19.68L117.32-19.68Q118.64-20.32 120.52-20.32L120.52-20.32Z M136.12-20.32L136.12-20.32Q140.60-20.32 143.40-17.32L143.40-17.32Q146.04-14.44 146.04-10L146.04-10Q146.04-5.56 143.40-2.68L143.40-2.68Q140.60 0.32 136.12 0.32L136.12 0.32Q131.64 0.32 128.84-2.68L128.84-2.68Q126.20-5.56 126.20-10L126.20-10Q126.20-14.44 128.84-17.32L128.84-17.32Q131.64-20.32 136.12-20.32ZM136.12-2.40L136.12-2.40Q139.36-2.40 141.24-4.64L141.24-4.64Q143.04-6.76 143.04-10L143.04-10Q143.04-13.24 141.24-15.36L141.24-15.36Q139.36-17.60 136.12-17.60L136.12-17.60Q132.88-17.60 131.00-15.36L131.00-15.36Q129.20-13.24 129.20-10L129.20-10Q129.20-6.76 131.00-4.64L131.00-4.64Q132.88-2.40 136.12-2.40Z M154-20L157-20L157-16.88Q158.08-18.32 159.64-19.32Q161.20-20.32 163.20-20.32Q165.20-20.32 166.64-19.76Q168.08-19.20 169.16-18.08L169.16-18.08Q171.64-15.64 171.64-11.64L171.64-11.64L171.64 0L168.64 0L168.64-11.56Q168.64-14.32 167.08-15.96Q165.52-17.60 163.04-17.60L163.04-17.60Q160.52-17.60 158.76-15.92L158.76-15.92Q157-14.20 157-11.52L157-11.52L157 0L154 0L154-20Z M180.64 0L180.64-20L183.64-20L183.64 0L180.64 0ZM180.52-27.28L183.76-27.28L183.76-23.36L180.52-23.36L180.52-27.28Z M202.08-2.40L202.08-2.40Q204-2.40 205.48-3.48Q206.96-4.56 207.64-6.28L207.64-6.28L210.88-6.28Q209.96-3.32 207.52-1.52L207.52-1.52Q204.96 0.32 201.44 0.32L201.44 0.32Q197.04 0.32 194.28-2.68L194.28-2.68Q191.60-5.60 191.60-10L191.60-10Q191.60-14.40 194.28-17.32L194.28-17.32Q197.04-20.32 201.44-20.32L201.44-20.32Q204.96-20.32 207.52-18.48L207.52-18.48Q209.96-16.68 210.88-13.72L210.88-13.72L207.64-13.72Q206.96-15.44 205.48-16.52Q204-17.60 202.08-17.60Q200.16-17.60 198.82-17Q197.48-16.40 196.56-15.36L196.56-15.36Q194.60-13.20 194.60-10L194.60-10Q194.60-6.80 196.56-4.64L196.56-4.64Q198.56-2.40 202.08-2.40Z M233.24-14.64L230.20-14.64Q229.80-17.76 225.18-17.76Q220.56-17.76 220.56-14.88L220.56-14.88Q220.56-13.68 221.54-13.06Q222.52-12.44 224-12.04Q225.48-11.64 227.22-11.30Q228.96-10.96 230.44-10.34Q231.92-9.72 232.90-8.64Q233.88-7.56 233.88-5.68L233.88-5.68Q233.88-2.76 231.68-1.22Q229.48 0.32 225.72 0.32L225.72 0.32Q221.72 0.32 219.36-1.68L219.36-1.68Q217.20-3.44 217.04-6.28L217.04-6.28L220.16-6.28Q220.44-3.52 223.28-2.56L223.28-2.56Q224.32-2.24 225.34-2.24Q226.36-2.24 227.24-2.36Q228.12-2.48 228.96-2.80L228.96-2.80Q230.88-3.56 230.88-5.40L230.88-5.40Q230.88-6.64 229.90-7.30Q228.92-7.96 227.44-8.38Q225.96-8.80 224.22-9.14Q222.48-9.48 221-10.08Q219.52-10.68 218.54-11.72Q217.56-12.76 217.56-14.60L217.56-14.60Q217.56-17.32 219.54-18.82Q221.52-20.32 225.40-20.32L225.40-20.32Q229.08-20.32 231.20-18.56L231.20-18.56Q232.96-17.08 233.24-14.64L233.24-14.64Z"/></g>
</svg>
</g><g opacity="1" transform="rotate(0 76.0526 356.0568)">
<svg width="390.5739" height="38" x="76.0526" y="356.0568" version="1.1" preserveAspectRatio="none" viewBox="2.9102 -28.0078 287.8711 28.0078">
  <g transform="matrix(1 0 0 1 0 0)" class="companyName"><path id="id-D6z1nYkh10" d="M30.90-7.13L30.90-6.15Q30.90-5.21 30.58-4.14Q30.25-3.07 29.52-2.15Q28.79-1.23 27.62-0.62Q26.45 0 24.75 0L24.75 0L5.47 0Q4.92 0 4.45-0.20Q3.98-0.39 3.64-0.73Q3.30-1.07 3.11-1.54Q2.91-2.01 2.91-2.56L2.91-2.56L2.91-25.45Q2.91-25.98 3.11-26.45Q3.30-26.91 3.64-27.27Q3.98-27.62 4.45-27.81Q4.92-28.01 5.47-28.01L5.47-28.01L22.46-28.01Q23.40-28.01 24.47-27.68Q25.55-27.34 26.47-26.61Q27.40-25.88 28.02-24.71Q28.63-23.54 28.63-21.84L28.63-21.84L28.63-20.88Q28.63-19.53 28.18-17.98Q27.73-16.43 26.74-15.04L26.74-15.04Q27.60-14.51 28.35-13.77Q29.10-13.03 29.67-12.05Q30.23-11.07 30.57-9.84Q30.90-8.61 30.90-7.13L30.90-7.13ZM25.82-6.19L25.82-7.13Q25.82-8.13 25.51-8.92Q25.20-9.71 24.63-10.27Q24.06-10.84 23.26-11.14Q22.46-11.45 21.46-11.45L21.46-11.45L10.02-11.45L10.02-16.56L19.18-16.56Q20.18-16.56 20.98-16.87Q21.78-17.17 22.34-17.73Q22.91-18.30 23.21-19.09Q23.52-19.88 23.52-20.88L23.52-20.88L23.52-21.84Q23.52-22.93 22.46-22.93L22.46-22.93L7.99-22.93L7.99-5.08L24.75-5.08Q24.88-5.08 25.08-5.10Q25.27-5.12 25.43-5.21Q25.59-5.31 25.70-5.55Q25.82-5.78 25.82-6.19L25.82-6.19Z M58.34-16.56L58.34-11.45L42.30-11.45L42.30-16.56L58.34-16.56ZM60.63-5.08L60.63 0L42.30 0Q41.25 0 40-0.37Q38.75-0.74 37.69-1.59Q36.62-2.44 35.91-3.80Q35.20-5.16 35.20-7.13L35.20-7.13L35.20-25.45Q35.20-25.98 35.39-26.45Q35.59-26.91 35.93-27.27Q36.27-27.62 36.74-27.81Q37.21-28.01 37.75-28.01L37.75-28.01L60.63-28.01L60.63-22.93L40.27-22.93L40.27-7.13Q40.27-6.13 40.80-5.61Q41.33-5.08 42.34-5.08L42.34-5.08L60.63-5.08Z M92.34-8.24L92.34-8.24Q92.34-6.74 91.96-5.54Q91.58-4.34 90.96-3.42Q90.33-2.50 89.49-1.86Q88.65-1.21 87.75-0.80Q86.86-0.39 85.93-0.20Q85 0 84.18 0L84.18 0L64.59 0L64.59-5.08L84.18-5.08Q85.64-5.08 86.46-5.94Q87.27-6.80 87.27-8.24L87.27-8.24Q87.27-8.95 87.05-9.53Q86.84-10.12 86.44-10.55Q86.04-10.98 85.46-11.21Q84.88-11.45 84.18-11.45L84.18-11.45L72.50-11.45Q71.27-11.45 69.84-11.88Q68.42-12.32 67.20-13.30Q65.98-14.28 65.17-15.86Q64.36-17.44 64.36-19.73L64.36-19.73Q64.36-22.01 65.17-23.58Q65.98-25.16 67.20-26.14Q68.42-27.13 69.84-27.57Q71.27-28.01 72.50-28.01L72.50-28.01L89.79-28.01L89.79-22.93L72.50-22.93Q71.05-22.93 70.24-22.05Q69.43-21.17 69.43-19.73L69.43-19.73Q69.43-18.26 70.24-17.41Q71.05-16.56 72.50-16.56L72.50-16.56L84.18-16.56L84.22-16.56Q85.04-16.54 85.96-16.34Q86.88-16.13 87.78-15.70Q88.69-15.27 89.51-14.62Q90.33-13.96 90.97-13.05Q91.60-12.13 91.97-10.94Q92.34-9.75 92.34-8.24Z M121.58-28.01L121.58-22.93L110.39-22.93L110.39 0L105.31 0L105.31-22.93L94.10-22.93L94.10-28.01L121.58-28.01Z M165.84-16.29L165.84-11.72Q165.84-9.16 164.95-7.01Q164.06-4.86 162.50-3.31Q160.94-1.76 158.79-0.88Q156.64 0 154.12 0L154.12 0L140.41 0Q139.86 0 139.39-0.20Q138.93-0.39 138.58-0.73Q138.24-1.07 138.05-1.54Q137.85-2.01 137.85-2.56L137.85-2.56L137.85-25.45Q137.85-25.98 138.05-26.45Q138.24-26.91 138.58-27.27Q138.93-27.62 139.39-27.81Q139.86-28.01 140.41-28.01L140.41-28.01L154.12-28.01Q156.64-28.01 158.79-27.13Q160.94-26.25 162.50-24.70Q164.06-23.14 164.95-20.99Q165.84-18.83 165.84-16.29L165.84-16.29ZM160.76-11.72L160.76-16.29Q160.76-17.77 160.28-19.00Q159.80-20.23 158.93-21.10Q158.05-21.97 156.83-22.45Q155.61-22.93 154.12-22.93L154.12-22.93L142.93-22.93L142.93-5.08L154.12-5.08Q155.61-5.08 156.83-5.56Q158.05-6.04 158.93-6.90Q159.80-7.77 160.28-8.99Q160.76-10.21 160.76-11.72L160.76-11.72Z M193.85-16.56L193.85-11.45L177.81-11.45L177.81-16.56L193.85-16.56ZM196.13-5.08L196.13 0L177.81 0Q176.76 0 175.51-0.37Q174.26-0.74 173.19-1.59Q172.13-2.44 171.42-3.80Q170.70-5.16 170.70-7.13L170.70-7.13L170.70-25.45Q170.70-25.98 170.90-26.45Q171.09-26.91 171.44-27.27Q171.78-27.62 172.25-27.81Q172.71-28.01 173.26-28.01L173.26-28.01L196.13-28.01L196.13-22.93L175.78-22.93L175.78-7.13Q175.78-6.13 176.31-5.61Q176.84-5.08 177.85-5.08L177.85-5.08L196.13-5.08Z M228.52-25.45L228.52 0L223.44 0L223.44-6.88L205.59-6.88L205.59 0L200.51 0L200.51-14.00Q200.51-17.07 201.56-19.65Q202.62-22.23 204.49-24.08Q206.37-25.94 208.93-26.97Q211.48-28.01 214.51-28.01L214.51-28.01L225.96-28.01Q226.48-28.01 226.95-27.81Q227.42-27.62 227.77-27.27Q228.13-26.91 228.32-26.45Q228.52-25.98 228.52-25.45L228.52-25.45ZM205.59-14.00L205.59-11.95L223.44-11.95L223.44-22.93L214.51-22.93Q214.28-22.93 213.53-22.86Q212.77-22.79 211.79-22.52Q210.80-22.25 209.71-21.68Q208.61-21.11 207.70-20.12Q206.78-19.12 206.18-17.63Q205.59-16.13 205.59-14.00L205.59-14.00Z M260.14-5.08L260.14 0L236.97 0Q236.43 0 235.96-0.20Q235.49-0.39 235.15-0.73Q234.80-1.07 234.61-1.54Q234.41-2.01 234.41-2.56L234.41-2.56L234.41-28.01L239.49-28.01L239.49-5.08L260.14-5.08Z M290.78-8.24L290.78-8.24Q290.78-6.74 290.40-5.54Q290.02-4.34 289.39-3.42Q288.77-2.50 287.93-1.86Q287.09-1.21 286.19-0.80Q285.29-0.39 284.37-0.20Q283.44 0 282.62 0L282.62 0L263.03 0L263.03-5.08L282.62-5.08Q284.08-5.08 284.89-5.94Q285.70-6.80 285.70-8.24L285.70-8.24Q285.70-8.95 285.49-9.53Q285.27-10.12 284.87-10.55Q284.47-10.98 283.90-11.21Q283.32-11.45 282.62-11.45L282.62-11.45L270.94-11.45Q269.71-11.45 268.28-11.88Q266.86-12.32 265.63-13.30Q264.41-14.28 263.60-15.86Q262.79-17.44 262.79-19.73L262.79-19.73Q262.79-22.01 263.60-23.58Q264.41-25.16 265.63-26.14Q266.86-27.13 268.28-27.57Q269.71-28.01 270.94-28.01L270.94-28.01L288.22-28.01L288.22-22.93L270.94-22.93Q269.49-22.93 268.68-22.05Q267.87-21.17 267.87-19.73L267.87-19.73Q267.87-18.26 268.68-17.41Q269.49-16.56 270.94-16.56L270.94-16.56L282.62-16.56L282.66-16.56Q283.48-16.54 284.39-16.34Q285.31-16.13 286.22-15.70Q287.13-15.27 287.95-14.62Q288.77-13.96 289.40-13.05Q290.04-12.13 290.41-10.94Q290.78-9.75 290.78-8.24Z"/></g>
</svg>
</g><g opacity="1" transform="rotate(0 173.6961 42.8908)">
<svg width="195.2869" height="283.166" x="173.6961" y="42.8908" version="1.1" preserveAspectRatio="none" viewBox="5.999999523162842 1 20 29">
  <g transform="matrix(1 0 0 1 0 0)" class="icon1"><g transform="translate(0,-1020.3622)"><g><path style="color:#000000;font-style:normal;font-variant:normal;font-weight:normal;font-stretch:normal;font-size:medium;line-height:normal;text-indent:0;text-align:start;text-decoration:none;text-decoration-line:none;text-decoration-style:solid;text-decoration-color:#000000;letter-spacing:normal;word-spacing:normal;text-transform:none;direction:ltr;block-progression:tb;writing-mode:lr-tb;baseline-shift:baseline;text-anchor:start;white-space:normal;clip-rule:nonzero;display:inline;overflow:visible;visibility:visible;opacity:1;isolation:auto;mix-blend-mode:normal;color-interpolation:sRGB;color-interpolation-filters:linearRGB;solid-color:#000000;solid-opacity:1;fill-rule:nonzero;stroke-width:1;stroke-linecap:round;stroke-linejoin:round;stroke-miterlimit:4;stroke-dasharray:none;stroke-dashoffset:0;color-rendering:auto;image-rendering:auto;shape-rendering:auto;text-rendering:auto;enable-background:accumulate" d="m 22.03125,8 0,-1.5 c 0,-2.1639728 -1.51821,-3.9751904 -3.5625,-4.40625 C 17.6771,1.4161863 16.656049,1 15.53125,1 13.036452,1 11,3.0148002 11,5.5 L 11,8 m 1,0 0,-2.5 C 12,3.5545002 13.570157,2 15.53125,2 c 0.325683,0 0.639232,0.044584 0.9375,0.125 C 14.486164,2.60135 13,4.3796674 13,6.5 L 13,8 m 1,0 0,-1.5 C 14,4.5545002 15.570157,3 17.53125,3 c 0.170171,0 0.336621,0.0086 0.5,0.03125 0.635233,0.6318125 1,1.496 1,2.46875 l 0,2.5 m 1,0 0,-2.5 c 0,-0.6213 -0.114768,-1.2116313 -0.34375,-1.75 0.825203,0.6382201 1.34375,1.6203063 1.34375,2.75 l 0,1.5 M 6.5,9 8.09375,9 C 8.0397454,9.15394 8,9.3286875 8,9.5 7.99835,9.723 7.8496744,9.9738 7.53125,10.125 c -0.3203713,0.1521 -0.7421287,0.1521 -1.0625,0 C 6.1503256,9.9716 6.0016473,9.723 6,9.5 6,9.4286 6.0066913,9.3727625 6.03125,9.3125 6.1049261,9.1317125 6.2857636,9 6.5,9 Z m 3,0 c 0.020813,0.0013 0.041687,0.0013 0.0625,0 L 9.59375,9 13,9 13,10.59375 C 12.41498,10.798934 12,11.348854 12,12 c 0,0.8225 0.677495,1.5 1.5,1.5 0.822505,0 1.5,-0.6775 1.5,-1.5 0,-0.651146 -0.41498,-1.201066 -1,-1.40625 L 14,9 l 7.03125,0 0,1.59375 C 20.431914,10.790716 20,11.338573 20,12 c 0,0.8225 0.677495,1.5 1.5,1.5 0.822505,0 1.5,-0.6775 1.5,-1.5 0,-0.640865 -0.398017,-1.193334 -0.96875,-1.40625 L 22.03125,9 25.5,9 C 25.785649,9 26,9.2144 26,9.5 l 0,20.5 -0.5,0 -16,0 C 9.4285879,30 9.3727648,29.993305 9.3125,29.96875 9.1317057,29.895086 9,29.714275 9,29.5 l 0,-4.25 0,-0.09375 0,-7.5 L 9,14.5 9,9.5 C 9,9.4286 9.0066913,9.3727625 9.03125,9.3125 9.1049261,9.1317125 9.2857636,9 9.5,9 Z M 6,11 c 0.013117,0.0066 0.017958,0.02494 0.03125,0.03125 0.6078308,0.2885 1.3296692,0.2885 1.9375,0 C 7.9820418,11.024978 7.9868831,11.006546 8,11 l 0,3.5 0,3.15625 0,0.15625 0,7.34375 0,0.09375 0,4.25 c 0,0.171333 0.039745,0.346054 0.09375,0.5 L 6.5,30 C 6.2143514,30 6,29.7857 6,29.5 L 6,26 6,18.46875 6,14.5 Z m 7.5,0.5 c 0.282065,0 0.5,0.218 0.5,0.5 0,0.2821 -0.217935,0.5 -0.5,0.5 -0.282065,0 -0.5,-0.2179 -0.5,-0.5 0,-0.282 0.217935,-0.5 0.5,-0.5 z m 8,0 c 0.282065,0 0.5,0.218 0.5,0.5 0,0.2821 -0.217935,0.5 -0.5,0.5 -0.282065,0 -0.5,-0.2179 -0.5,-0.5 0,-0.282 0.217935,-0.5 0.5,-0.5 z" transform="translate(-5e-7,1020.3622)"></path></g></g></g>
</svg>
</g></svg></svg>