<?xml version="1.0" encoding="UTF-8" standalone="no"?>
<!DOCTYPE svg PUBLIC "-//W3C//DTD SVG 1.1//EN" "http://www.w3.org/Graphics/SVG/1.1/DTD/svg11.dtd">
<!-- Created with Vectornator (http://vectornator.io/) -->
<svg height="100%" stroke-miterlimit="10" style="fill-rule:nonzero;clip-rule:evenodd;stroke-linecap:round;stroke-linejoin:round;" version="1.1" viewBox="0 0 500 500" width="100%" xml:space="preserve" xmlns="http://www.w3.org/2000/svg" xmlns:vectornator="http://vectornator.io" xmlns:xlink="http://www.w3.org/1999/xlink">
<defs/>
<g id="Untitled" vectornator:layerName="Untitled">
<path d="M257.688 385.338L259.541 385.338L259.541 387.58L257.688 387.58L257.688 385.338Z" fill="#e3e3e3" fill-rule="nonzero" opacity="1" stroke="none"/>
<path d="M94.5082 365.081L94.5082 367.239C94.5082 368.62 94.3633 370.095 94.0734 371.666C93.7744 373.237 93.2943 374.698 92.633 376.049C91.9717 377.399 91.1111 378.522 90.0512 379.418C88.9913 380.328 87.6914 380.783 86.1513 380.783L86.1513 380.783L59.9528 380.783C59.4546 380.783 58.9926 380.637 58.5668 380.343C58.141 380.064 57.7741 379.675 57.4661 379.176C57.1581 378.677 56.9181 378.082 56.746 377.392C56.5648 376.702 56.4742 375.953 56.4742 375.146L56.4742 375.146L56.4742 324.735C56.4742 323.957 56.5648 323.223 56.746 322.533C56.9181 321.858 57.1581 321.256 57.4661 320.727C57.7741 320.213 58.141 319.817 58.5668 319.538C58.9926 319.244 59.4546 319.098 59.9528 319.098L59.9528 319.098L83.0396 319.098C83.8911 319.098 84.8015 319.34 85.7709 319.824C86.7492 320.323 87.6551 321.109 88.4885 322.181C89.331 323.252 90.0331 324.647 90.5947 326.365C91.1473 328.083 91.4236 330.19 91.4236 332.686L91.4236 332.686L91.4236 334.8C91.4236 336.782 91.2198 338.911 90.8122 341.186C90.4045 343.462 89.7523 345.62 88.8554 347.661L88.8554 347.661C89.6345 348.439 90.3637 349.372 91.0432 350.458C91.7226 351.544 92.3205 352.807 92.8368 354.246C93.3441 355.685 93.7518 357.307 94.0598 359.113C94.3587 360.919 94.5082 362.908 94.5082 365.081L94.5082 365.081ZM87.6053 367.151L87.6053 365.081C87.6053 363.613 87.4649 362.299 87.1841 361.139C86.9032 359.979 86.5046 358.988 85.9883 358.166C85.4719 357.329 84.8514 356.69 84.1267 356.25C83.4019 355.795 82.5866 355.567 81.6807 355.567L81.6807 355.567L66.1356 355.567L66.1356 344.314L78.5826 344.314C79.4885 344.314 80.3038 344.086 81.0285 343.631C81.7532 343.19 82.3692 342.559 82.8765 341.737C83.3929 340.9 83.7869 339.902 84.0587 338.742C84.3395 337.582 84.48 336.268 84.48 334.8L84.48 334.8L84.48 332.686C84.48 331.085 83.9998 330.285 83.0396 330.285L83.0396 330.285L63.3771 330.285L63.3771 369.596L86.1513 369.596C86.2691 369.596 86.4186 369.581 86.5997 369.552C86.7719 369.522 86.9304 369.442 87.0753 369.31C87.2203 369.163 87.3426 368.913 87.4422 368.561C87.5509 368.223 87.6053 367.753 87.6053 367.151L87.6053 367.151ZM131.795 344.371L131.795 355.459C131.795 355.519 131.765 355.567 131.728 355.567L110.066 355.567C110.029 355.567 109.999 355.519 109.999 355.459L109.999 344.314C109.999 344.314 131.795 344.34 131.795 344.371ZM134.907 369.596L134.907 380.783L109.999 380.783C109.048 380.783 108.006 380.512 106.874 379.969C105.741 379.425 104.695 378.53 103.735 377.282C102.765 376.034 101.959 374.412 101.316 372.415C100.673 370.418 100.351 367.974 100.351 365.081L100.351 365.081L100.351 324.735C100.351 323.957 100.437 323.223 100.609 322.533C100.791 321.858 101.035 321.256 101.343 320.727C101.651 320.213 102.018 319.817 102.444 319.538C102.87 319.244 103.327 319.098 103.816 319.098L103.816 319.098L134.907 319.098L134.907 330.285L107.241 330.285L107.241 365.081C107.241 366.549 107.481 367.665 107.961 368.429C108.441 369.207 109.138 369.596 110.053 369.596L110.053 369.596L134.907 369.596ZM177.996 362.637L177.996 362.637C177.996 364.839 177.823 366.821 177.479 368.583C177.135 370.345 176.682 371.901 176.12 373.252C175.55 374.602 174.884 375.748 174.123 376.687C173.362 377.642 172.574 378.42 171.758 379.022C170.952 379.624 170.128 380.064 169.285 380.343C168.443 380.637 167.65 380.783 166.907 380.783L166.907 380.783L140.288 380.783L140.288 369.596L166.907 369.596C168.23 369.596 169.263 368.965 170.006 367.702C170.739 366.439 171.106 364.751 171.106 362.637L171.106 362.637C171.106 361.594 171.007 360.647 170.807 359.796C170.617 358.929 170.341 358.181 169.978 357.549C169.616 356.918 169.172 356.434 168.647 356.096C168.121 355.744 167.542 355.567 166.907 355.567L166.907 355.567L151.036 355.567C149.922 355.567 148.717 355.252 147.422 354.62C146.135 353.974 144.939 352.932 143.834 351.493C142.729 350.054 141.81 348.175 141.076 345.855C140.342 343.536 139.975 340.695 139.975 337.332L139.975 337.332C139.975 333.985 140.342 331.159 141.076 328.854C141.81 326.534 142.729 324.655 143.834 323.216C144.939 321.762 146.135 320.713 147.422 320.067C148.717 319.421 149.922 319.098 151.036 319.098L151.036 319.098L174.531 319.098L174.531 330.285L151.036 330.285C149.723 330.285 148.699 330.931 147.965 332.223C147.231 333.515 146.864 335.218 146.864 337.332L146.864 337.332C146.864 339.491 147.231 341.194 147.965 342.442C148.699 343.69 149.723 344.314 151.036 344.314L151.036 344.314L166.907 344.314L166.962 344.314C167.705 344.343 168.493 344.505 169.326 344.798C170.16 345.106 170.984 345.576 171.799 346.208C172.624 346.839 173.407 347.632 174.15 348.586C174.893 349.555 175.554 350.708 176.134 352.044C176.705 353.394 177.158 354.943 177.493 356.69C177.828 358.438 177.996 360.42 177.996 362.637ZM217.728 319.155L217.728 330.177C217.728 330.237 217.698 330.285 217.661 330.285L202.589 330.285C202.553 330.285 202.523 330.333 202.523 330.393L202.523 380.675C202.523 380.735 202.493 380.783 202.456 380.783L195.686 380.783C195.65 380.783 195.62 380.735 195.62 380.675L195.62 330.393C195.62 330.333 195.59 330.285 195.553 330.285L180.454 330.285C180.417 330.285 180.387 330.237 180.387 330.177L180.387 319.098C180.387 319.098 217.728 319.123 217.728 319.155ZM277.871 344.908L277.871 354.973C277.871 358.731 277.467 362.189 276.661 365.345C275.855 368.502 274.745 371.218 273.332 373.494C271.919 375.77 270.238 377.553 268.291 378.845C266.343 380.137 264.228 380.783 261.945 380.783L261.945 380.783L243.315 380.783C242.817 380.783 242.355 380.637 241.929 380.343C241.512 380.064 241.146 379.675 240.828 379.176C240.52 378.677 240.28 378.082 240.108 377.392C239.927 376.702 239.837 375.953 239.837 375.146L239.837 375.146L239.837 324.735C239.837 323.957 239.927 323.223 240.108 322.533C240.28 321.858 240.52 321.256 240.828 320.727C241.146 320.213 241.512 319.817 241.929 319.538C242.355 319.244 242.817 319.098 243.315 319.098L243.315 319.098L261.945 319.098C264.228 319.098 266.343 319.744 268.291 321.036C270.238 322.328 271.919 324.111 273.332 326.387C274.745 328.677 275.855 331.401 276.661 334.558C277.467 337.729 277.871 341.179 277.871 344.908L277.871 344.908ZM270.968 354.973L270.968 344.908C270.968 342.735 270.75 340.746 270.315 338.94C269.881 337.134 269.269 335.593 268.481 334.315C267.684 333.038 266.733 332.047 265.627 331.342C264.522 330.637 263.295 330.285 261.945 330.285L261.945 330.285L246.739 330.285L246.739 369.596L261.945 369.596C263.295 369.596 264.522 369.244 265.627 368.539C266.733 367.834 267.684 366.85 268.481 365.588C269.269 364.31 269.881 362.776 270.315 360.985C270.75 359.194 270.968 357.19 270.968 354.973L270.968 354.973ZM315.932 344.371L315.932 355.459C315.932 355.519 315.902 355.567 315.865 355.567L294.203 355.567C294.166 355.567 294.136 355.519 294.136 355.459L294.136 344.314C294.136 344.314 315.932 344.34 315.932 344.371ZM319.03 369.596L319.03 380.783L294.136 380.783C293.185 380.783 292.143 380.512 291.011 379.969C289.878 379.425 288.827 378.53 287.858 377.282C286.898 376.034 286.096 374.412 285.453 372.415C284.801 370.418 284.475 367.974 284.475 365.081L284.475 365.081L284.475 324.735C284.475 323.957 284.565 323.223 284.746 322.533C284.918 321.858 285.163 321.256 285.48 320.727C285.788 320.213 286.155 319.817 286.581 319.538C286.997 319.244 287.455 319.098 287.953 319.098L287.953 319.098L319.03 319.098L319.03 330.285L291.377 330.285L291.377 365.081C291.377 366.549 291.618 367.665 292.098 368.429C292.578 369.207 293.275 369.596 294.19 369.596L294.19 369.596L319.03 369.596ZM363.043 324.735L363.043 380.783L356.14 380.783L356.14 365.632L331.885 365.632L331.885 380.783L324.982 380.783L324.982 349.952C324.982 345.444 325.457 341.297 326.408 337.509C327.369 333.721 328.696 330.469 330.39 327.752C332.093 325.022 334.104 322.9 336.423 321.388C338.733 319.861 341.261 319.098 344.005 319.098L344.005 319.098L359.564 319.098C360.035 319.098 360.484 319.244 360.909 319.538C361.335 319.817 361.707 320.213 362.024 320.727C362.35 321.256 362.599 321.858 362.771 322.533C362.952 323.223 363.043 323.957 363.043 324.735L363.043 324.735ZM331.885 349.952L331.885 354.466L356.14 354.466L356.14 330.285L344.005 330.285C343.797 330.285 343.353 330.336 342.674 330.439C341.985 330.542 341.197 330.792 340.309 331.188C339.413 331.584 338.47 332.201 337.483 333.038C336.487 333.875 335.576 335.02 334.752 336.474C333.918 337.942 333.23 339.77 332.686 341.957C332.152 344.159 331.885 346.824 331.885 349.952L331.885 349.952ZM406.01 369.596L406.01 380.783L374.525 380.783C374.036 380.783 373.578 380.637 373.153 380.343C372.727 380.064 372.36 379.675 372.052 379.176C371.735 378.677 371.49 378.082 371.318 377.392C371.137 376.702 371.046 375.953 371.046 375.146L371.046 375.146L371.046 319.098L377.949 319.098L377.949 369.596L406.01 369.596ZM447.644 362.637L447.644 362.637C447.644 364.839 447.472 366.821 447.128 368.583C446.784 370.345 446.326 371.901 445.756 373.252C445.194 374.602 444.533 375.748 443.772 376.687C443.011 377.642 442.223 378.42 441.407 379.022C440.592 379.624 439.768 380.064 438.934 380.343C438.092 380.637 437.299 380.783 436.556 380.783L436.556 380.783L409.937 380.783L409.937 369.596L436.556 369.596C437.879 369.596 438.907 368.965 439.641 367.702C440.375 366.439 440.742 364.751 440.742 362.637L440.742 362.637C440.742 361.594 440.646 360.647 440.456 359.796C440.257 358.929 439.976 358.181 439.614 357.549C439.251 356.918 438.812 356.434 438.296 356.096C437.77 355.744 437.19 355.567 436.556 355.567L436.556 355.567L420.685 355.567C419.571 355.567 418.366 355.252 417.071 354.62C415.784 353.974 414.584 352.932 413.47 351.493C412.364 350.054 411.445 348.175 410.711 345.855C409.977 343.536 409.61 340.695 409.61 337.332L409.61 337.332C409.61 333.985 409.977 331.159 410.711 328.854C411.445 326.534 412.364 324.655 413.47 323.216C414.584 321.762 415.784 320.713 417.071 320.067C418.366 319.421 419.571 319.098 420.685 319.098L420.685 319.098L444.166 319.098L444.166 330.285L420.685 330.285C419.371 330.285 418.348 330.931 417.614 332.223C416.88 333.515 416.513 335.218 416.513 337.332L416.513 337.332C416.513 339.491 416.88 341.194 417.614 342.442C418.348 343.69 419.371 344.314 420.685 344.314L420.685 344.314L436.556 344.314L436.611 344.314C437.354 344.343 438.137 344.505 438.961 344.798C439.795 345.106 440.624 345.576 441.448 346.208C442.273 346.839 443.056 347.632 443.799 348.586C444.542 349.555 445.199 350.708 445.769 352.044C446.349 353.394 446.807 354.943 447.142 356.69C447.477 358.438 447.644 360.42 447.644 362.637Z" fill="#e3e3e3" fill-rule="nonzero" opacity="1" stroke="none"/>
<path d="M311.461 116.343L311.461 103.172C311.461 84.171 296.761 68.2675 276.966 64.4826C269.301 58.5332 259.414 54.8789 248.523 54.8789C224.366 54.8789 204.647 72.5699 204.647 94.3912L204.647 116.343M214.33 116.343L214.33 94.3912C214.33 77.3087 229.534 63.6594 248.523 63.6594C251.676 63.6594 254.712 64.0509 257.6 64.757C238.403 68.9396 224.013 84.5541 224.013 103.172L224.013 116.343M233.696 116.343L233.696 103.172C233.696 86.0893 248.899 72.4399 267.888 72.4399C269.536 72.4399 271.148 72.5155 272.73 72.7143C278.881 78.262 282.413 85.85 282.413 94.3912L282.413 116.343M292.095 116.343L292.095 94.3912C292.095 88.9359 290.984 83.7525 288.767 79.0253C296.757 84.6292 301.778 93.2525 301.778 103.172L301.778 116.343M161.074 125.123L176.506 125.123C175.984 126.475 175.599 128.009 175.599 129.513C175.583 131.471 174.143 133.674 171.06 135.001C167.958 136.337 163.874 136.337 160.772 135.001C157.689 133.654 156.249 131.471 156.233 129.513C156.233 128.886 156.298 128.396 156.536 127.867C157.249 126.28 159 125.123 161.074 125.123ZM190.123 125.123C190.324 125.134 190.527 125.134 190.728 125.123L191.031 125.123L224.013 125.123L224.013 139.117C218.348 140.919 214.33 145.747 214.33 151.465C214.33 158.687 220.89 164.635 228.854 164.635C236.819 164.635 243.379 158.687 243.379 151.465C243.379 145.747 239.36 140.919 233.696 139.117L233.696 125.123L301.778 125.123L301.778 139.117C295.975 140.846 291.793 145.657 291.793 151.465C291.793 158.687 298.353 164.635 306.317 164.635C314.281 164.635 320.841 158.687 320.841 151.465C320.841 145.837 316.987 140.987 311.461 139.117L311.461 125.123L345.048 125.123C347.814 125.123 349.89 127.006 349.89 129.513L349.89 309.514L345.048 309.514L190.123 309.514C189.431 309.514 188.891 309.455 188.307 309.24C186.557 308.593 185.282 307.005 185.282 305.124L185.282 267.807L185.282 266.983L185.282 201.129L185.282 173.416L185.282 129.513C185.282 128.886 185.346 128.396 185.584 127.867C186.298 126.28 188.049 125.123 190.123 125.123ZM156.233 142.684C156.36 142.742 156.407 142.903 156.536 142.958C162.421 145.492 169.411 145.492 175.296 142.958C175.425 142.903 175.472 142.742 175.599 142.684L175.599 173.416L175.599 201.129L175.599 202.501L175.599 266.983L175.599 267.807L175.599 305.124C175.599 306.628 175.984 308.162 176.506 309.514L161.074 309.514C158.309 309.514 156.233 307.632 156.233 305.124L156.233 274.392L156.233 208.264L156.233 173.416L156.233 142.684ZM228.854 147.074C231.586 147.074 233.696 148.989 233.696 151.465C233.696 153.942 231.586 155.855 228.854 155.855C226.123 155.855 224.013 153.942 224.013 151.465C224.013 148.989 226.123 147.074 228.854 147.074ZM306.317 147.074C309.048 147.074 311.159 148.989 311.159 151.465C311.159 153.942 309.048 155.855 306.317 155.855C303.586 155.855 301.476 153.942 301.476 151.465C301.476 148.989 303.586 147.074 306.317 147.074Z" fill="#faf300" fill-rule="nonzero" opacity="1" stroke="none"/>
</g>
</svg>
