<svg version="1.1" id="Layer_1" xmlns="http://www.w3.org/2000/svg" xmlns:xlink="http://www.w3.org/1999/xlink" x="0px" y="0px"
	 width="50%" viewBox="0 0 932 832" enable-background="new 0 0 932 832" xml:space="preserve">
<path fill="#3971E0" opacity="1.000000" stroke="none" 
	d="
M564.000000,833.000000 
	C376.000000,833.000000 188.500000,833.000000 1.000000,833.000000 
	C1.000000,555.666687 1.000000,278.333344 1.000000,1.000000 
	C311.666656,1.000000 622.333313,1.000000 933.000000,1.000000 
	C933.000000,278.333344 933.000000,555.666687 933.000000,833.000000 
	C810.166687,833.000000 687.333313,833.000000 564.000000,833.000000 
M424.686035,419.813446 
	C434.242615,429.335236 443.764099,438.892578 453.367523,448.366882 
	C460.246857,455.153748 466.526611,455.172546 473.309723,448.392975 
	C535.655945,386.078918 598.018677,323.781097 660.173157,261.276276 
	C662.802734,258.631927 664.828735,253.988480 664.788818,250.301682 
	C664.309753,205.982773 663.674194,161.660858 662.469910,117.356308 
	C661.773560,91.735771 645.301636,76.211174 619.623291,75.785606 
	C576.482178,75.070610 533.336975,74.572586 490.199890,73.676979 
	C483.779236,73.543671 479.227570,75.614929 474.801666,80.053894 
	C413.740326,141.296005 352.557709,202.417297 291.407898,263.571259 
	C282.848816,272.130951 282.808380,278.022339 291.269592,286.479767 
	C335.571106,330.761627 379.879395,375.036713 424.686035,419.813446 
M166.193130,571.663208 
	C168.754990,570.130432 171.524216,568.859070 173.842667,567.019531 
	C183.676743,559.216797 184.094742,544.203674 173.928818,536.825073 
	C168.748138,533.064819 162.088531,529.748596 155.876282,529.301025 
	C136.990219,527.940186 117.996513,528.071777 99.044174,527.647156 
	C98.770264,527.640991 98.489159,527.955994 98.029495,528.229309 
	C98.029495,529.590881 98.029495,531.052429 98.029495,532.485352 
	C107.613403,534.726318 108.862267,536.004089 108.933113,545.993774 
	C109.083145,567.146362 109.082603,588.301392 108.935333,609.453979 
	C108.858009,620.560791 107.399284,621.959229 96.184944,623.716370 
	C95.884438,623.763428 95.617989,624.027832 95.190201,624.274841 
	C95.190201,625.641907 95.190201,627.087341 95.190201,628.721191 
	C96.160904,628.827209 96.966415,628.991333 97.772041,628.991943 
	C113.762131,629.002930 129.753784,629.128418 145.741776,628.942932 
	C156.092850,628.822876 166.284241,627.716675 175.912735,623.251587 
	C196.577515,613.668579 192.659058,589.869995 180.178360,581.681641 
	C174.361008,577.864990 167.202652,576.092346 161.300644,573.660461 
	C161.899902,573.414368 163.703033,572.673828 166.193130,571.663208 
M470.457672,553.508911 
	C470.351013,573.166748 470.325806,592.825562 470.096466,612.481934 
	C470.008148,620.049866 467.895020,622.465332 460.564789,623.222290 
	C456.584137,623.633362 455.707947,625.172302 457.120392,629.013184 
	C467.080811,629.013184 477.049255,629.134766 487.013489,628.981689 
	C498.826874,628.800232 510.740295,629.267090 522.427979,627.896973 
	C554.505493,624.136658 573.290527,596.080261 564.880188,565.546204 
	C559.024902,544.288635 537.551758,528.474304 513.110413,527.881958 
	C496.126892,527.470337 479.130554,527.585510 462.139832,527.485718 
	C461.181946,527.480103 460.222961,527.659241 459.122375,527.766174 
	C459.122375,529.618896 459.122375,531.183533 459.122375,532.695312 
	C468.721985,534.362244 469.740326,535.525635 470.152252,545.033691 
	C470.260254,547.526855 470.356262,550.020630 470.457672,553.508911 
M667.527466,613.594238 
	C667.411560,623.763916 675.988403,632.227417 691.164795,629.637207 
	C699.177246,628.269714 704.814270,623.371521 709.502075,616.649292 
	C713.187317,630.221741 724.159729,634.420837 733.922668,626.547241 
	C736.135071,624.762939 737.971069,622.801636 735.026550,620.092651 
	C728.433411,621.473450 726.526367,620.021301 726.088501,613.016785 
	C725.891296,609.861938 726.077759,606.685059 726.000305,603.520447 
	C725.759888,593.705933 725.861023,583.862122 725.089966,574.088074 
	C724.453735,566.024109 719.194885,561.127991 711.511292,559.365967 
	C701.463562,557.061829 691.276184,557.036621 681.406433,560.198669 
	C678.250000,561.209961 675.127258,563.407166 672.861755,565.865845 
	C669.440063,569.579285 670.435791,576.357971 674.097351,578.809204 
	C678.231750,581.576965 684.157776,579.841431 686.867737,574.981628 
	C687.755859,573.388855 688.396545,571.657715 689.144897,569.987427 
	C690.906799,566.055420 693.911743,564.131348 698.239258,564.430725 
	C702.881287,564.751770 706.230591,566.921814 707.265503,571.612000 
	C707.868408,574.344177 707.788757,577.219788 708.172241,580.009460 
	C708.624573,583.300171 707.406433,584.990051 704.193787,586.302734 
	C695.885803,589.697449 687.623779,593.288513 679.657593,597.408691 
	C673.489685,600.598694 668.229492,605.043945 667.527466,613.594238 
M617.505981,589.544739 
	C627.169312,589.542175 636.833069,589.587891 646.495667,589.500549 
	C648.702271,589.480652 651.318359,589.894104 651.757629,586.424255 
	C652.982971,576.745850 646.553284,565.282227 637.370850,560.981384 
	C624.007202,554.722168 605.025635,558.176270 594.711121,568.744202 
	C584.345276,579.364746 581.469482,597.441467 587.985474,611.020996 
	C594.913635,625.459595 611.317200,632.974365 628.453125,629.523743 
	C637.202393,627.761902 644.554932,623.666809 650.433044,616.505615 
	C649.028992,614.933105 647.871582,613.636841 646.780334,612.414673 
	C643.857483,614.376343 641.469727,616.211487 638.875305,617.682129 
	C622.430176,627.004456 606.707581,618.956482 605.009644,600.146729 
	C603.818054,586.946472 603.911255,589.862549 614.510376,589.547302 
	C615.176270,589.527466 615.843201,589.544678 617.505981,589.544739 
M268.666656,567.877686 
	C258.613434,554.356750 233.854355,555.924866 222.100204,564.794373 
	C209.088058,574.613098 205.071289,587.910156 208.110962,603.288635 
	C210.851227,617.152344 219.738617,625.936890 233.562836,628.983643 
	C248.815750,632.345337 262.197052,628.846497 273.045929,616.649841 
	C271.804840,615.115479 270.702667,613.752808 269.635040,612.432861 
	C266.078308,614.669250 262.990021,616.984802 259.592865,618.682129 
	C245.337402,625.804382 231.931747,619.667664 228.335342,604.421143 
	C227.652130,601.524719 227.599213,598.484375 227.158295,595.524902 
	C226.502716,591.124756 227.889511,589.289001 232.762070,589.433777 
	C244.244965,589.774902 255.745087,589.576355 267.237793,589.512451 
	C269.479279,589.500000 271.718689,589.109009 273.991669,588.889404 
	C274.514771,581.164978 273.474762,574.409058 268.666656,567.877686 
M777.851562,548.500061 
	C777.851562,539.082642 777.851562,529.665161 777.851562,519.696533 
	C767.668823,521.346313 758.312134,522.750244 749.026978,524.527832 
	C748.021667,524.720215 747.430359,527.074890 746.413208,528.829956 
	C757.515686,529.928955 758.865234,531.125427 758.947205,540.897217 
	C759.137146,563.541382 759.110107,586.187561 759.142456,608.832886 
	C759.158752,620.203796 758.643127,620.884766 747.830200,624.324951 
	C747.935425,625.804626 748.045654,627.355469 748.148010,628.795044 
	C761.967468,628.795044 775.265015,628.795044 788.671143,628.795044 
	C788.671143,627.033447 788.671143,625.492065 788.671143,624.028015 
	C779.017944,621.880188 778.047302,620.775696 777.858704,611.986755 
	C777.833679,610.820801 777.851685,609.653992 777.851685,608.487549 
	C777.851440,588.825073 777.851562,569.162598 777.851562,548.500061 
M847.351440,578.920837 
	C847.894165,572.384766 848.436890,565.848633 848.979614,559.312561 
	C848.443604,559.071533 847.907532,558.830444 847.371521,558.589417 
	C845.666565,559.580261 843.961670,560.571045 842.283752,561.546204 
	C839.500732,560.566040 836.599609,559.261475 833.560791,558.524963 
	C822.697632,555.892151 812.409119,560.315552 808.101929,569.266602 
	C803.577209,578.669739 806.396729,588.300476 816.083130,595.377808 
	C819.964539,598.213684 824.362061,600.335083 828.320068,603.077026 
	C831.157043,605.042480 834.098267,607.145752 836.212769,609.807373 
	C840.998230,615.830994 838.040283,622.135864 830.384705,622.912964 
	C821.498474,623.815002 815.656189,619.624023 812.385071,609.183411 
	C811.155762,605.259644 809.483582,604.064392 805.691711,605.589905 
	C805.691711,613.335205 805.691711,620.947021 805.691711,630.313782 
	C808.803345,628.144287 810.931335,626.660583 813.278015,625.024475 
	C819.292419,629.447937 826.418640,630.366760 833.899109,630.038818 
	C843.191467,629.631287 851.201721,624.383301 853.845520,616.757629 
	C856.751892,608.374329 854.471863,600.411316 846.737305,594.126221 
	C842.760925,590.894897 838.180908,588.407166 833.879395,585.574768 
	C831.104858,583.747864 828.133667,582.149719 825.615845,580.017700 
	C820.803711,575.942871 820.009827,570.279480 823.438660,566.982178 
	C826.847717,563.703857 833.642334,564.346924 837.292664,568.643005 
	C839.202209,570.890381 840.277893,573.836670 842.132996,576.143433 
	C843.172241,577.435730 845.033936,578.066711 847.351440,578.920837 
M307.923401,598.545227 
	C313.156494,602.293396 319.117279,605.359436 323.435516,609.965271 
	C328.643066,615.519714 325.219177,622.188843 317.552277,622.925842 
	C308.655182,623.781128 302.866852,619.564697 299.599457,609.118713 
	C298.457886,605.469116 296.895599,604.087158 293.064087,605.473022 
	C293.064087,613.135742 293.064087,620.871460 293.064087,630.174255 
	C296.021790,628.189331 298.082733,626.806213 300.553802,625.147888 
	C306.592224,629.498779 314.053741,630.474487 321.846313,630.005920 
	C330.918854,629.460388 338.549652,624.131042 341.091187,616.537170 
	C343.916931,608.094360 341.502350,599.935059 333.800659,593.956238 
	C329.486816,590.607361 324.595001,588.010742 320.035431,584.967651 
	C317.140839,583.035767 314.086121,581.204285 311.625702,578.794373 
	C308.056610,575.298462 307.690582,570.483826 310.158844,567.512146 
	C312.618713,564.550598 318.472076,563.677307 322.001251,566.631470 
	C324.824707,568.994934 327.156769,572.267334 328.841217,575.576965 
	C330.450256,578.738342 332.186401,579.792358 335.530640,578.498535 
	C335.530640,572.097534 335.530640,565.704956 335.530640,558.111267 
	C332.929840,559.579041 331.094910,560.614563 329.524658,561.500732 
	C326.442749,560.435913 323.531494,559.144226 320.484863,558.428955 
	C309.709778,555.898926 299.394348,560.534485 295.194122,569.587097 
	C290.872345,578.901672 293.774261,588.266663 303.201172,595.330505 
	C304.530670,596.326660 305.943817,597.211243 307.923401,598.545227 
M366.446686,578.508423 
	C366.450348,590.339844 366.326904,602.173157 366.502045,614.002014 
	C366.620392,621.992859 370.287079,626.823425 377.269501,629.025513 
	C386.209259,631.844910 396.851868,629.721802 400.962372,624.295471 
	C402.757294,621.925964 403.700287,619.657654 400.313782,618.723083 
	C396.906494,619.990784 393.187927,621.670471 389.972168,620.986450 
	C385.258484,619.983704 385.413513,615.075378 384.969452,611.117859 
	C384.876862,610.292542 384.868317,609.454590 384.867920,608.622498 
	C384.861877,595.957825 384.851227,583.293152 384.882996,570.628601 
	C384.886169,569.368225 385.159149,568.108459 385.367737,566.329834 
	C390.306396,566.329834 394.896851,566.329834 399.470032,566.329834 
	C399.470032,563.693176 399.470032,561.629272 399.470032,559.044800 
	C394.511353,559.044800 389.920349,559.044800 384.661865,559.044800 
	C384.661865,553.493835 384.661865,548.452209 384.661865,543.514893 
	C378.394714,542.927551 378.466736,542.975708 375.585449,547.286560 
	C371.969849,552.695984 367.130310,556.803772 360.947662,558.801392 
	C356.703033,560.172974 356.020172,562.483826 357.432251,566.365112 
	C360.264130,566.512756 363.030151,566.656921 366.446838,566.835022 
	C366.446838,570.609863 366.446838,574.060059 366.446686,578.508423 
M339.752197,717.626038 
	C343.367157,725.824402 348.293213,728.680481 357.983063,728.195679 
	C365.028687,727.843262 369.340271,724.650391 371.881012,716.900940 
	C368.982391,718.192383 366.493713,718.650024 364.963043,720.111267 
	C361.121582,723.778564 356.769897,724.507080 352.091095,722.947754 
	C347.555603,721.436157 344.825989,718.078003 344.190521,712.590027 
	C353.833038,712.590027 363.234894,712.590027 372.540100,712.590027 
	C374.169159,702.512390 369.012756,694.752869 359.846802,692.837524 
	C350.011810,690.782288 341.097137,695.800476 339.176849,705.144165 
	C338.405487,708.897400 339.277344,712.988281 339.752197,717.626038 
M281.369568,693.756531 
	C273.174713,697.594849 269.385864,705.355225 271.130463,714.728516 
	C272.416718,721.639526 278.705811,727.575806 285.347229,728.147888 
	C295.311554,729.006165 300.840942,726.077759 304.287720,717.004028 
	C301.281219,718.233276 298.796417,718.621643 297.194275,720.020813 
	C292.223206,724.362366 286.703278,725.197754 281.368500,721.178772 
	C279.470520,719.748962 278.571320,716.993469 277.216217,714.843079 
	C279.360474,714.090698 281.483398,712.771301 283.652924,712.689575 
	C290.907166,712.416382 298.178070,712.585999 305.375977,712.585999 
	C306.140991,697.647644 296.741455,690.250854 281.369568,693.756531 
M519.008545,696.458008 
	C511.358643,690.739624 500.884033,691.138245 494.881287,697.376160 
	C488.834290,703.660095 488.362579,715.096313 493.856506,722.221313 
	C498.825012,728.664917 509.617645,730.463989 516.917969,726.065552 
	C526.421387,720.339661 527.647888,706.979919 519.008545,696.458008 
M674.780029,710.675232 
	C673.073853,710.048828 671.389954,709.350769 669.656799,708.810974 
	C666.016357,707.677063 662.232422,706.910645 658.727966,705.460266 
	C655.317993,704.048950 655.040710,700.462830 657.829468,698.388123 
	C661.140991,695.924438 668.878723,696.938965 671.737000,699.808777 
	C673.106873,701.184143 675.230042,701.809143 677.012085,702.774048 
	C675.470154,693.893921 670.329468,691.295776 660.358948,692.732788 
	C654.341431,693.600098 650.886353,696.710999 650.524475,701.587463 
	C650.191772,706.070801 653.114929,709.348083 658.955933,711.122070 
	C663.071655,712.372131 667.325928,713.330505 671.227905,715.070435 
	C674.691040,716.614624 674.714722,719.881409 671.778992,722.190247 
	C667.609497,725.469543 658.778137,724.436707 656.180603,719.854858 
	C654.498718,716.888123 652.866455,716.262329 649.346008,717.850281 
	C650.536621,719.979492 651.349548,722.164734 652.769226,723.833984 
	C656.888367,728.677490 667.172363,730.021973 673.552856,726.794312 
	C680.323059,723.369507 681.185181,716.078735 674.780029,710.675232 
M564.431885,723.195801 
	C564.514404,724.667847 564.596985,726.139893 564.685608,727.719849 
	C566.544861,727.719849 568.106689,727.719849 569.839905,727.719849 
	C569.839905,720.125183 570.286560,712.789368 569.727539,705.531006 
	C569.018066,696.320007 560.721252,690.600464 552.008179,692.885742 
	C549.672729,693.498230 547.572571,695.007751 546.249329,695.665588 
	C543.782532,694.442139 541.830505,693.473999 539.239014,692.188721 
	C539.239014,704.911621 539.239014,716.332275 539.239014,727.786133 
	C540.959412,727.786133 542.412964,727.786133 543.916809,727.786133 
	C544.023743,726.740723 544.163147,725.917419 544.183777,725.091125 
	C544.345459,718.607849 544.134705,712.091003 544.741943,705.650818 
	C545.219055,700.591248 549.912781,697.144287 554.856018,697.243286 
	C560.250854,697.351257 563.693237,700.473755 564.107971,706.285767 
	C564.486389,711.589233 564.344177,716.929749 564.431885,723.195801 
M387.437134,720.980591 
	C392.635010,727.667114 399.518219,730.299500 407.216614,727.755920 
	C412.202545,726.108521 416.885254,723.521057 417.913849,716.103882 
	C415.372833,717.202576 413.120239,717.514709 411.929596,718.805969 
	C406.770782,724.400757 400.911163,725.442017 395.264526,721.329895 
	C390.000183,717.496155 388.355438,709.136353 391.743225,703.432190 
	C396.225433,695.885254 405.644653,695.190430 411.397614,701.701782 
	C412.749542,703.231934 415.250488,703.746948 418.185669,705.208313 
	C415.645538,696.345215 409.481415,692.086853 401.237488,692.253357 
	C393.871887,692.402161 387.053802,697.554016 385.391205,704.416626 
	C384.066040,709.886597 384.153412,715.274597 387.437134,720.980591 
M614.888794,720.794617 
	C613.413757,717.907349 611.289978,715.164917 610.606140,712.101074 
	C609.389771,706.650940 612.845154,700.466125 617.449463,698.337341 
	C622.795715,695.865540 627.726318,697.358582 632.097473,702.046326 
	C633.425964,703.471008 635.977600,703.755066 638.918457,704.945984 
	C635.291992,695.158630 627.027161,690.917358 617.861816,692.916809 
	C609.714966,694.694092 604.505920,702.321411 604.975403,711.785645 
	C605.413025,720.608459 611.502502,727.538818 619.408447,728.211792 
	C629.628052,729.081665 635.901672,725.389893 638.142761,716.253357 
	C635.751831,717.235840 633.533203,717.522095 632.270996,718.773254 
	C626.442932,724.550110 622.929626,725.214844 614.888794,720.794617 
M441.016327,704.573364 
	C441.016327,702.336731 441.016327,700.100098 441.016327,697.863403 
	C443.558197,695.721375 450.220551,700.595032 448.516815,692.742920 
	C445.990448,692.742920 443.604553,692.742920 440.803131,692.742920 
	C440.803131,688.262085 440.803131,684.326782 440.803131,680.082642 
	C438.944061,680.247437 437.543640,680.371643 435.677124,680.537109 
	C435.677124,684.790894 435.677124,688.702393 435.677124,692.727112 
	C433.088867,692.919800 430.988617,693.076111 428.809021,693.238403 
	C427.476501,700.071716 433.978241,695.969543 435.981964,699.314941 
	C435.981964,708.225098 435.981964,717.964661 435.981964,727.729614 
	C437.845581,727.729614 439.254120,727.729614 441.016327,727.729614 
	C441.016327,720.160461 441.016327,712.860229 441.016327,704.573364 
M319.084320,685.641479 
	C319.084320,699.682800 319.084320,713.724121 319.084320,728.063721 
	C321.287384,727.955566 322.719238,727.885254 324.331116,727.806091 
	C324.331116,711.446045 324.331116,695.398376 324.331116,678.931702 
	C322.457520,679.055237 320.919128,679.156677 319.084381,679.277710 
	C319.084381,681.401978 319.084381,683.045044 319.084320,685.641479 
M461.983673,717.468750 
	C461.983673,720.911987 461.983673,724.355164 461.983673,728.044006 
	C463.999634,727.938782 465.443970,727.863342 467.191681,727.772095 
	C467.191681,724.525513 467.133820,721.546997 467.207916,718.571777 
	C467.282074,715.593811 467.254120,712.585022 467.682800,709.649902 
	C468.730377,702.477295 472.497803,698.793579 479.483459,697.671631 
	C479.758942,697.627380 479.990479,697.309570 480.539856,696.894531 
	C480.425781,695.673645 480.294800,694.271851 480.023773,691.371155 
	C475.342346,693.777161 471.489594,695.757263 467.483887,697.815979 
	C467.250641,696.274780 467.015930,694.723938 466.751129,692.974304 
	C465.041840,693.065491 463.646454,693.139893 461.983673,693.228638 
	C461.983673,701.247925 461.983673,708.862061 461.983673,717.468750 
M585.831726,700.578491 
	C585.831726,709.634216 585.831726,718.689941 585.831726,728.064880 
	C587.947571,727.900024 589.335693,727.791931 590.673584,727.687744 
	C590.673584,715.948975 590.673584,704.592590 590.673584,692.938599 
	C588.926575,693.091736 587.530579,693.214111 585.831726,693.363037 
	C585.831726,695.669250 585.831726,697.636536 585.831726,700.578491 
M591.046631,681.209534 
	C589.371521,680.760376 587.696472,680.311157 585.802246,679.803223 
	C585.802246,682.754761 585.802246,684.775696 585.802246,687.093933 
	C587.813843,686.979980 589.377808,686.891418 591.189331,686.788757 
	C591.189331,684.935974 591.189331,683.461121 591.046631,681.209534 
z"/>
<path fill="#F0DB75" opacity="1.000000" stroke="none" 
	d="
M424.435669,419.563782 
	C379.879395,375.036713 335.571106,330.761627 291.269592,286.479767 
	C282.808380,278.022339 282.848816,272.130951 291.407898,263.571259 
	C352.557709,202.417297 413.740326,141.296005 474.801666,80.053894 
	C479.227570,75.614929 483.779236,73.543671 490.199890,73.676979 
	C533.336975,74.572586 576.482178,75.070610 619.623291,75.785606 
	C645.301636,76.211174 661.773560,91.735771 662.469910,117.356308 
	C663.674194,161.660858 664.309753,205.982773 664.788818,250.301682 
	C664.828735,253.988480 662.802734,258.631927 660.173157,261.276276 
	C598.018677,323.781097 535.655945,386.078918 473.309723,448.392975 
	C466.526611,455.172546 460.246857,455.153748 453.367523,448.366882 
	C443.764099,438.892578 434.242615,429.335236 424.435669,419.563782 
M413.185455,386.313721 
	C429.884125,402.958862 446.582825,419.604034 463.171967,436.140015 
	C463.802429,435.781647 463.974396,435.726807 464.087799,435.613373 
	C525.137207,374.589478 586.193848,313.572876 647.152771,252.458740 
	C648.467896,251.140259 649.310303,248.691879 649.280884,246.787460 
	C648.609619,203.301071 647.816772,159.816452 646.970459,116.332977 
	C646.746582,104.829834 639.788513,95.554886 629.020447,92.587601 
	C625.703674,91.673630 622.116821,91.495842 618.644775,91.426483 
	C576.494507,90.584442 534.343445,89.763206 492.188995,89.199638 
	C489.641296,89.165573 486.452728,90.741562 484.588898,92.598648 
	C424.976166,151.996307 365.489532,211.520538 305.990570,271.032379 
	C304.739258,272.283997 303.566772,273.614471 301.851044,275.449921 
	C339.030426,312.471191 375.858124,349.142303 413.185455,386.313721 
z"/>
<path fill="#F8F9FB" opacity="1.000000" stroke="none" 
	d="
M165.849655,571.798218 
	C163.703033,572.673828 161.899902,573.414368 161.300644,573.660461 
	C167.202652,576.092346 174.361008,577.864990 180.178360,581.681641 
	C192.659058,589.869995 196.577515,613.668579 175.912735,623.251587 
	C166.284241,627.716675 156.092850,628.822876 145.741776,628.942932 
	C129.753784,629.128418 113.762131,629.002930 97.772041,628.991943 
	C96.966415,628.991333 96.160904,628.827209 95.190201,628.721191 
	C95.190201,627.087341 95.190201,625.641907 95.190201,624.274841 
	C95.617989,624.027832 95.884438,623.763428 96.184944,623.716370 
	C107.399284,621.959229 108.858009,620.560791 108.935333,609.453979 
	C109.082603,588.301392 109.083145,567.146362 108.933113,545.993774 
	C108.862267,536.004089 107.613403,534.726318 98.029495,532.485352 
	C98.029495,531.052429 98.029495,529.590881 98.029495,528.229309 
	C98.489159,527.955994 98.770264,527.640991 99.044174,527.647156 
	C117.996513,528.071777 136.990219,527.940186 155.876282,529.301025 
	C162.088531,529.748596 168.748138,533.064819 173.928818,536.825073 
	C184.094742,544.203674 183.676743,559.216797 173.842667,567.019531 
	C171.524216,568.859070 168.754990,570.130432 165.849655,571.798218 
M128.502991,608.593079 
	C129.943176,616.382935 132.240768,618.987244 139.941635,620.170288 
	C143.820908,620.766113 147.928726,620.917358 151.796432,620.345154 
	C162.399597,618.776245 166.953323,613.611816 167.725861,603.184326 
	C168.492050,592.842407 163.501923,584.312195 154.057724,582.135681 
	C146.691086,580.437927 138.962967,580.217896 131.371017,579.699158 
	C130.382202,579.631592 128.348404,581.681580 128.323288,582.785339 
	C128.134171,591.094299 128.327103,599.412048 128.502991,608.593079 
M128.168716,540.819824 
	C128.168716,551.062622 128.168716,561.305481 128.168716,572.831970 
	C136.018906,571.560425 143.055267,571.166504 149.604095,569.171814 
	C157.844543,566.661987 161.137665,559.435913 159.783890,549.887085 
	C158.586594,541.442078 153.977417,536.856079 145.316071,536.068359 
	C140.855270,535.662659 136.334015,535.964905 131.844162,535.820435 
	C128.890732,535.725403 128.097717,537.358582 128.168716,540.819824 
z"/>
<path fill="#F6F7FA" opacity="1.000000" stroke="none" 
	d="
M470.457703,553.011475 
	C470.356262,550.020630 470.260254,547.526855 470.152252,545.033691 
	C469.740326,535.525635 468.721985,534.362244 459.122375,532.695312 
	C459.122375,531.183533 459.122375,529.618896 459.122375,527.766174 
	C460.222961,527.659241 461.181946,527.480103 462.139832,527.485718 
	C479.130554,527.585510 496.126892,527.470337 513.110413,527.881958 
	C537.551758,528.474304 559.024902,544.288635 564.880188,565.546204 
	C573.290527,596.080261 554.505493,624.136658 522.427979,627.896973 
	C510.740295,629.267090 498.826874,628.800232 487.013489,628.981689 
	C477.049255,629.134766 467.080811,629.013184 457.120392,629.013184 
	C455.707947,625.172302 456.584137,623.633362 460.564789,623.222290 
	C467.895020,622.465332 470.008148,620.049866 470.096466,612.481934 
	C470.325806,592.825562 470.351013,573.166748 470.457703,553.011475 
M489.851501,576.499939 
	C489.857941,586.483337 489.851501,596.466736 489.875610,606.450073 
	C489.889801,612.334656 492.370239,616.709656 497.919189,619.033630 
	C513.805176,625.686890 534.565613,617.271851 540.981323,601.299072 
	C546.403687,587.799500 546.233521,573.822693 541.750549,560.266785 
	C536.073853,543.101074 524.960510,535.853088 506.690735,535.851562 
	C502.863739,535.851257 499.019073,536.081909 495.214569,535.789551 
	C491.148468,535.477112 489.668762,536.812683 489.764099,541.058960 
	C490.021790,552.534119 489.851837,564.018921 489.851501,576.499939 
z"/>
<path fill="#F7F8FA" opacity="1.000000" stroke="none" 
	d="
M667.532471,613.198547 
	C668.229492,605.043945 673.489685,600.598694 679.657593,597.408691 
	C687.623779,593.288513 695.885803,589.697449 704.193787,586.302734 
	C707.406433,584.990051 708.624573,583.300171 708.172241,580.009460 
	C707.788757,577.219788 707.868408,574.344177 707.265503,571.612000 
	C706.230591,566.921814 702.881287,564.751770 698.239258,564.430725 
	C693.911743,564.131348 690.906799,566.055420 689.144897,569.987427 
	C688.396545,571.657715 687.755859,573.388855 686.867737,574.981628 
	C684.157776,579.841431 678.231750,581.576965 674.097351,578.809204 
	C670.435791,576.357971 669.440063,569.579285 672.861755,565.865845 
	C675.127258,563.407166 678.250000,561.209961 681.406433,560.198669 
	C691.276184,557.036621 701.463562,557.061829 711.511292,559.365967 
	C719.194885,561.127991 724.453735,566.024109 725.089966,574.088074 
	C725.861023,583.862122 725.759888,593.705933 726.000305,603.520447 
	C726.077759,606.685059 725.891296,609.861938 726.088501,613.016785 
	C726.526367,620.021301 728.433411,621.473450 735.026550,620.092651 
	C737.971069,622.801636 736.135071,624.762939 733.922668,626.547241 
	C724.159729,634.420837 713.187317,630.221741 709.502075,616.649292 
	C704.814270,623.371521 699.177246,628.269714 691.164795,629.637207 
	C675.988403,632.227417 667.411560,623.763916 667.532471,613.198547 
M704.157654,613.625183 
	C710.327637,607.375366 707.534424,599.639771 707.414917,591.721924 
	C700.690918,595.424561 694.245544,599.364014 688.445374,604.094543 
	C685.186584,606.752380 685.215332,610.945679 687.623840,614.583679 
	C689.888123,618.003906 693.324463,618.490601 696.916077,617.316528 
	C699.241211,616.556458 701.372498,615.203430 704.157654,613.625183 
z"/>
<path fill="#F5F7FA" opacity="1.000000" stroke="none" 
	d="
M617.007812,589.544678 
	C615.843201,589.544678 615.176270,589.527466 614.510376,589.547302 
	C603.911255,589.862549 603.818054,586.946472 605.009644,600.146729 
	C606.707581,618.956482 622.430176,627.004456 638.875305,617.682129 
	C641.469727,616.211487 643.857483,614.376343 646.780334,612.414673 
	C647.871582,613.636841 649.028992,614.933105 650.433044,616.505615 
	C644.554932,623.666809 637.202393,627.761902 628.453125,629.523743 
	C611.317200,632.974365 594.913635,625.459595 587.985474,611.020996 
	C581.469482,597.441467 584.345276,579.364746 594.711121,568.744202 
	C605.025635,558.176270 624.007202,554.722168 637.370850,560.981384 
	C646.553284,565.282227 652.982971,576.745850 651.757629,586.424255 
	C651.318359,589.894104 648.702271,589.480652 646.495667,589.500549 
	C636.833069,589.587891 627.169312,589.542175 617.007812,589.544678 
M626.244141,581.991272 
	C628.973999,581.627930 632.636414,583.096497 633.127930,578.393860 
	C633.874756,571.249023 627.685120,565.026123 620.486389,565.723206 
	C613.390198,566.410278 607.759155,572.771667 606.399231,581.991516 
	C612.737122,581.991516 619.018127,581.991516 626.244141,581.991272 
z"/>
<path fill="#F6F7FA" opacity="1.000000" stroke="none" 
	d="
M268.882935,568.168091 
	C273.474762,574.409058 274.514771,581.164978 273.991669,588.889404 
	C271.718689,589.109009 269.479279,589.500000 267.237793,589.512451 
	C255.745087,589.576355 244.244965,589.774902 232.762070,589.433777 
	C227.889511,589.289001 226.502716,591.124756 227.158295,595.524902 
	C227.599213,598.484375 227.652130,601.524719 228.335342,604.421143 
	C231.931747,619.667664 245.337402,625.804382 259.592865,618.682129 
	C262.990021,616.984802 266.078308,614.669250 269.635040,612.432861 
	C270.702667,613.752808 271.804840,615.115479 273.045929,616.649841 
	C262.197052,628.846497 248.815750,632.345337 233.562836,628.983643 
	C219.738617,625.936890 210.851227,617.152344 208.110962,603.288635 
	C205.071289,587.910156 209.088058,574.613098 222.100204,564.794373 
	C233.854355,555.924866 258.613434,554.356750 268.882935,568.168091 
M235.644897,568.981262 
	C231.893387,572.408325 229.486542,576.481262 228.962418,581.969604 
	C236.834351,581.969604 244.148315,581.986145 251.462128,581.962280 
	C254.887695,581.951111 256.136444,580.135132 255.829956,576.809570 
	C254.900574,566.725159 245.608536,562.745239 235.644897,568.981262 
z"/>
<path fill="#F6F8FA" opacity="1.000000" stroke="none" 
	d="
M777.851562,549.000122 
	C777.851562,569.162598 777.851440,588.825073 777.851685,608.487549 
	C777.851685,609.653992 777.833679,610.820801 777.858704,611.986755 
	C778.047302,620.775696 779.017944,621.880188 788.671143,624.028015 
	C788.671143,625.492065 788.671143,627.033447 788.671143,628.795044 
	C775.265015,628.795044 761.967468,628.795044 748.148010,628.795044 
	C748.045654,627.355469 747.935425,625.804626 747.830200,624.324951 
	C758.643127,620.884766 759.158752,620.203796 759.142456,608.832886 
	C759.110107,586.187561 759.137146,563.541382 758.947205,540.897217 
	C758.865234,531.125427 757.515686,529.928955 746.413208,528.829956 
	C747.430359,527.074890 748.021667,524.720215 749.026978,524.527832 
	C758.312134,522.750244 767.668823,521.346313 777.851562,519.696533 
	C777.851562,529.665161 777.851562,539.082642 777.851562,549.000122 
z"/>
<path fill="#F5F7FA" opacity="1.000000" stroke="none" 
	d="
M846.938232,578.958252 
	C845.033936,578.066711 843.172241,577.435730 842.132996,576.143433 
	C840.277893,573.836670 839.202209,570.890381 837.292664,568.643005 
	C833.642334,564.346924 826.847717,563.703857 823.438660,566.982178 
	C820.009827,570.279480 820.803711,575.942871 825.615845,580.017700 
	C828.133667,582.149719 831.104858,583.747864 833.879395,585.574768 
	C838.180908,588.407166 842.760925,590.894897 846.737305,594.126221 
	C854.471863,600.411316 856.751892,608.374329 853.845520,616.757629 
	C851.201721,624.383301 843.191467,629.631287 833.899109,630.038818 
	C826.418640,630.366760 819.292419,629.447937 813.278015,625.024475 
	C810.931335,626.660583 808.803345,628.144287 805.691711,630.313782 
	C805.691711,620.947021 805.691711,613.335205 805.691711,605.589905 
	C809.483582,604.064392 811.155762,605.259644 812.385071,609.183411 
	C815.656189,619.624023 821.498474,623.815002 830.384705,622.912964 
	C838.040283,622.135864 840.998230,615.830994 836.212769,609.807373 
	C834.098267,607.145752 831.157043,605.042480 828.320068,603.077026 
	C824.362061,600.335083 819.964539,598.213684 816.083130,595.377808 
	C806.396729,588.300476 803.577209,578.669739 808.101929,569.266602 
	C812.409119,560.315552 822.697632,555.892151 833.560791,558.524963 
	C836.599609,559.261475 839.500732,560.566040 842.283752,561.546204 
	C843.961670,560.571045 845.666565,559.580261 847.371521,558.589417 
	C847.907532,558.830444 848.443604,559.071533 848.979614,559.312561 
	C848.436890,565.848633 847.894165,572.384766 846.938232,578.958252 
z"/>
<path fill="#F7F8FA" opacity="1.000000" stroke="none" 
	d="
M307.620789,598.346375 
	C305.943817,597.211243 304.530670,596.326660 303.201172,595.330505 
	C293.774261,588.266663 290.872345,578.901672 295.194122,569.587097 
	C299.394348,560.534485 309.709778,555.898926 320.484863,558.428955 
	C323.531494,559.144226 326.442749,560.435913 329.524658,561.500732 
	C331.094910,560.614563 332.929840,559.579041 335.530640,558.111267 
	C335.530640,565.704956 335.530640,572.097534 335.530640,578.498535 
	C332.186401,579.792358 330.450256,578.738342 328.841217,575.576965 
	C327.156769,572.267334 324.824707,568.994934 322.001251,566.631470 
	C318.472076,563.677307 312.618713,564.550598 310.158844,567.512146 
	C307.690582,570.483826 308.056610,575.298462 311.625702,578.794373 
	C314.086121,581.204285 317.140839,583.035767 320.035431,584.967651 
	C324.595001,588.010742 329.486816,590.607361 333.800659,593.956238 
	C341.502350,599.935059 343.916931,608.094360 341.091187,616.537170 
	C338.549652,624.131042 330.918854,629.460388 321.846313,630.005920 
	C314.053741,630.474487 306.592224,629.498779 300.553802,625.147888 
	C298.082733,626.806213 296.021790,628.189331 293.064087,630.174255 
	C293.064087,620.871460 293.064087,613.135742 293.064087,605.473022 
	C296.895599,604.087158 298.457886,605.469116 299.599457,609.118713 
	C302.866852,619.564697 308.655182,623.781128 317.552277,622.925842 
	C325.219177,622.188843 328.643066,615.519714 323.435516,609.965271 
	C319.117279,605.359436 313.156494,602.293396 307.620789,598.346375 
z"/>
<path fill="#F4F6FA" opacity="1.000000" stroke="none" 
	d="
M366.446777,578.009338 
	C366.446838,574.060059 366.446838,570.609863 366.446838,566.835022 
	C363.030151,566.656921 360.264130,566.512756 357.432251,566.365112 
	C356.020172,562.483826 356.703033,560.172974 360.947662,558.801392 
	C367.130310,556.803772 371.969849,552.695984 375.585449,547.286560 
	C378.466736,542.975708 378.394714,542.927551 384.661865,543.514893 
	C384.661865,548.452209 384.661865,553.493835 384.661865,559.044800 
	C389.920349,559.044800 394.511353,559.044800 399.470032,559.044800 
	C399.470032,561.629272 399.470032,563.693176 399.470032,566.329834 
	C394.896851,566.329834 390.306396,566.329834 385.367737,566.329834 
	C385.159149,568.108459 384.886169,569.368225 384.882996,570.628601 
	C384.851227,583.293152 384.861877,595.957825 384.867920,608.622498 
	C384.868317,609.454590 384.876862,610.292542 384.969452,611.117859 
	C385.413513,615.075378 385.258484,619.983704 389.972168,620.986450 
	C393.187927,621.670471 396.906494,619.990784 400.313782,618.723083 
	C403.700287,619.657654 402.757294,621.925964 400.962372,624.295471 
	C396.851868,629.721802 386.209259,631.844910 377.269501,629.025513 
	C370.287079,626.823425 366.620392,621.992859 366.502045,614.002014 
	C366.326904,602.173157 366.450348,590.339844 366.446777,578.009338 
z"/>
<path fill="#F0F4FD" opacity="1.000000" stroke="none" 
	d="
M339.576752,717.275757 
	C339.277344,712.988281 338.405487,708.897400 339.176849,705.144165 
	C341.097137,695.800476 350.011810,690.782288 359.846802,692.837524 
	C369.012756,694.752869 374.169159,702.512390 372.540100,712.590027 
	C363.234894,712.590027 353.833038,712.590027 344.190521,712.590027 
	C344.825989,718.078003 347.555603,721.436157 352.091095,722.947754 
	C356.769897,724.507080 361.121582,723.778564 364.963043,720.111267 
	C366.493713,718.650024 368.982391,718.192383 371.881012,716.900940 
	C369.340271,724.650391 365.028687,727.843262 357.983063,728.195679 
	C348.293213,728.680481 343.367157,725.824402 339.576752,717.275757 
M361.534973,698.624451 
	C352.020813,695.443298 344.992157,699.212524 344.800446,707.468140 
	C352.140289,707.468140 359.478973,707.468140 366.817688,707.468140 
	C367.155365,707.076904 367.493042,706.685669 367.830719,706.294495 
	C365.926361,703.905151 364.022003,701.515808 361.534973,698.624451 
z"/>
<path fill="#F1F5FD" opacity="1.000000" stroke="none" 
	d="
M281.718628,693.582214 
	C296.741455,690.250854 306.140991,697.647644 305.375977,712.585999 
	C298.178070,712.585999 290.907166,712.416382 283.652924,712.689575 
	C281.483398,712.771301 279.360474,714.090698 277.216217,714.843079 
	C278.571320,716.993469 279.470520,719.748962 281.368500,721.178772 
	C286.703278,725.197754 292.223206,724.362366 297.194275,720.020813 
	C298.796417,718.621643 301.281219,718.233276 304.287720,717.004028 
	C300.840942,726.077759 295.311554,729.006165 285.347229,728.147888 
	C278.705811,727.575806 272.416718,721.639526 271.130463,714.728516 
	C269.385864,705.355225 273.174713,697.594849 281.718628,693.582214 
M295.609406,699.682983 
	C286.236694,694.849854 277.563995,698.429688 277.239441,707.447266 
	C284.686188,707.447266 292.121979,707.447266 300.607117,707.447266 
	C298.824066,704.535522 297.496216,702.367126 295.609406,699.682983 
z"/>
<path fill="#F1F5FD" opacity="1.000000" stroke="none" 
	d="
M519.302673,696.671265 
	C527.647888,706.979919 526.421387,720.339661 516.917969,726.065552 
	C509.617645,730.463989 498.825012,728.664917 493.856506,722.221313 
	C488.362579,715.096313 488.834290,703.660095 494.881287,697.376160 
	C500.884033,691.138245 511.358643,690.739624 519.302673,696.671265 
M507.559753,723.780823 
	C516.136230,722.716553 520.144409,717.526428 519.203979,708.702942 
	C518.401123,701.170288 513.286072,696.598816 506.365509,697.228943 
	C500.276978,697.783203 495.882385,702.773315 495.603485,709.449341 
	C495.259735,717.678589 498.838287,722.262512 507.559753,723.780823 
z"/>
<path fill="#F0F4FD" opacity="1.000000" stroke="none" 
	d="
M675.094116,710.889954 
	C681.185181,716.078735 680.323059,723.369507 673.552856,726.794312 
	C667.172363,730.021973 656.888367,728.677490 652.769226,723.833984 
	C651.349548,722.164734 650.536621,719.979492 649.346008,717.850281 
	C652.866455,716.262329 654.498718,716.888123 656.180603,719.854858 
	C658.778137,724.436707 667.609497,725.469543 671.778992,722.190247 
	C674.714722,719.881409 674.691040,716.614624 671.227905,715.070435 
	C667.325928,713.330505 663.071655,712.372131 658.955933,711.122070 
	C653.114929,709.348083 650.191772,706.070801 650.524475,701.587463 
	C650.886353,696.710999 654.341431,693.600098 660.358948,692.732788 
	C670.329468,691.295776 675.470154,693.893921 677.012085,702.774048 
	C675.230042,701.809143 673.106873,701.184143 671.737000,699.808777 
	C668.878723,696.938965 661.140991,695.924438 657.829468,698.388123 
	C655.040710,700.462830 655.317993,704.048950 658.727966,705.460266 
	C662.232422,706.910645 666.016357,707.677063 669.656799,708.810974 
	C671.389954,709.350769 673.073853,710.048828 675.094116,710.889954 
z"/>
<path fill="#F4F7FD" opacity="1.000000" stroke="none" 
	d="
M564.431641,722.724854 
	C564.344177,716.929749 564.486389,711.589233 564.107971,706.285767 
	C563.693237,700.473755 560.250854,697.351257 554.856018,697.243286 
	C549.912781,697.144287 545.219055,700.591248 544.741943,705.650818 
	C544.134705,712.091003 544.345459,718.607849 544.183777,725.091125 
	C544.163147,725.917419 544.023743,726.740723 543.916809,727.786133 
	C542.412964,727.786133 540.959412,727.786133 539.239014,727.786133 
	C539.239014,716.332275 539.239014,704.911621 539.239014,692.188721 
	C541.830505,693.473999 543.782532,694.442139 546.249329,695.665588 
	C547.572571,695.007751 549.672729,693.498230 552.008179,692.885742 
	C560.721252,690.600464 569.018066,696.320007 569.727539,705.531006 
	C570.286560,712.789368 569.839905,720.125183 569.839905,727.719849 
	C568.106689,727.719849 566.544861,727.719849 564.685608,727.719849 
	C564.596985,726.139893 564.514404,724.667847 564.431641,722.724854 
z"/>
<path fill="#F0F4FD" opacity="1.000000" stroke="none" 
	d="
M387.260742,720.652710 
	C384.153412,715.274597 384.066040,709.886597 385.391205,704.416626 
	C387.053802,697.554016 393.871887,692.402161 401.237488,692.253357 
	C409.481415,692.086853 415.645538,696.345215 418.185669,705.208313 
	C415.250488,703.746948 412.749542,703.231934 411.397614,701.701782 
	C405.644653,695.190430 396.225433,695.885254 391.743225,703.432190 
	C388.355438,709.136353 390.000183,717.496155 395.264526,721.329895 
	C400.911163,725.442017 406.770782,724.400757 411.929596,718.805969 
	C413.120239,717.514709 415.372833,717.202576 417.913849,716.103882 
	C416.885254,723.521057 412.202545,726.108521 407.216614,727.755920 
	C399.518219,730.299500 392.635010,727.667114 387.260742,720.652710 
z"/>
<path fill="#F1F5FD" opacity="1.000000" stroke="none" 
	d="
M615.181885,721.062866 
	C622.929626,725.214844 626.442932,724.550110 632.270996,718.773254 
	C633.533203,717.522095 635.751831,717.235840 638.142761,716.253357 
	C635.901672,725.389893 629.628052,729.081665 619.408447,728.211792 
	C611.502502,727.538818 605.413025,720.608459 604.975403,711.785645 
	C604.505920,702.321411 609.714966,694.694092 617.861816,692.916809 
	C627.027161,690.917358 635.291992,695.158630 638.918457,704.945984 
	C635.977600,703.755066 633.425964,703.471008 632.097473,702.046326 
	C627.726318,697.358582 622.795715,695.865540 617.449463,698.337341 
	C612.845154,700.466125 609.389771,706.650940 610.606140,712.101074 
	C611.289978,715.164917 613.413757,717.907349 615.181885,721.062866 
z"/>
<path fill="#F8FAFE" opacity="1.000000" stroke="none" 
	d="
M441.016327,705.066711 
	C441.016327,712.860229 441.016327,720.160461 441.016327,727.729614 
	C439.254120,727.729614 437.845581,727.729614 435.981964,727.729614 
	C435.981964,717.964661 435.981964,708.225098 435.981964,699.314941 
	C433.978241,695.969543 427.476501,700.071716 428.809021,693.238403 
	C430.988617,693.076111 433.088867,692.919800 435.677124,692.727112 
	C435.677124,688.702393 435.677124,684.790894 435.677124,680.537109 
	C437.543640,680.371643 438.944061,680.247437 440.803131,680.082642 
	C440.803131,684.326782 440.803131,688.262085 440.803131,692.742920 
	C443.604553,692.742920 445.990448,692.742920 448.516815,692.742920 
	C450.220551,700.595032 443.558197,695.721375 441.016327,697.863403 
	C441.016327,700.100098 441.016327,702.336731 441.016327,705.066711 
z"/>
<path fill="#E6EEFB" opacity="1.000000" stroke="none" 
	d="
M319.084351,685.164795 
	C319.084381,683.045044 319.084381,681.401978 319.084381,679.277710 
	C320.919128,679.156677 322.457520,679.055237 324.331116,678.931702 
	C324.331116,695.398376 324.331116,711.446045 324.331116,727.806091 
	C322.719238,727.885254 321.287384,727.955566 319.084320,728.063721 
	C319.084320,713.724121 319.084320,699.682800 319.084351,685.164795 
z"/>
<path fill="#F8FAFE" opacity="1.000000" stroke="none" 
	d="
M461.983673,716.972473 
	C461.983673,708.862061 461.983673,701.247925 461.983673,693.228638 
	C463.646454,693.139893 465.041840,693.065491 466.751129,692.974304 
	C467.015930,694.723938 467.250641,696.274780 467.483887,697.815979 
	C471.489594,695.757263 475.342346,693.777161 480.023773,691.371155 
	C480.294800,694.271851 480.425781,695.673645 480.539856,696.894531 
	C479.990479,697.309570 479.758942,697.627380 479.483459,697.671631 
	C472.497803,698.793579 468.730377,702.477295 467.682800,709.649902 
	C467.254120,712.585022 467.282074,715.593811 467.207916,718.571777 
	C467.133820,721.546997 467.191681,724.525513 467.191681,727.772095 
	C465.443970,727.863342 463.999634,727.938782 461.983673,728.044006 
	C461.983673,724.355164 461.983673,720.911987 461.983673,716.972473 
z"/>
<path fill="#FFFFFF" opacity="1.000000" stroke="none" 
	d="
M585.831726,700.091125 
	C585.831726,697.636536 585.831726,695.669250 585.831726,693.363037 
	C587.530579,693.214111 588.926575,693.091736 590.673584,692.938599 
	C590.673584,704.592590 590.673584,715.948975 590.673584,727.687744 
	C589.335693,727.791931 587.947571,727.900024 585.831726,728.064880 
	C585.831726,718.689941 585.831726,709.634216 585.831726,700.091125 
z"/>
<path fill="#E6EEFB" opacity="1.000000" stroke="none" 
	d="
M591.117981,681.597900 
	C591.189331,683.461121 591.189331,684.935974 591.189331,686.788757 
	C589.377808,686.891418 587.813843,686.979980 585.802246,687.093933 
	C585.802246,684.775696 585.802246,682.754761 585.802246,679.803223 
	C587.696472,680.311157 589.371521,680.760376 591.117981,681.597900 
z"/>
<path fill="#3A71E0" opacity="1.000000" stroke="none" 
	d="
M412.935638,386.063538 
	C375.858124,349.142303 339.030426,312.471191 301.851044,275.449921 
	C303.566772,273.614471 304.739258,272.283997 305.990570,271.032379 
	C365.489532,211.520538 424.976166,151.996307 484.588898,92.598648 
	C486.452728,90.741562 489.641296,89.165573 492.188995,89.199638 
	C534.343445,89.763206 576.494507,90.584442 618.644775,91.426483 
	C622.116821,91.495842 625.703674,91.673630 629.020447,92.587601 
	C639.788513,95.554886 646.746582,104.829834 646.970459,116.332977 
	C647.816772,159.816452 648.609619,203.301071 649.280884,246.787460 
	C649.310303,248.691879 648.467896,251.140259 647.152771,252.458740 
	C586.193848,313.572876 525.137207,374.589478 464.087799,435.613373 
	C463.974396,435.726807 463.802429,435.781647 463.171967,436.140015 
	C446.582825,419.604034 429.884125,402.958862 412.935638,386.063538 
M533.090637,170.239319 
	C534.481995,195.377533 560.794067,212.110916 585.005310,202.791153 
	C598.844238,197.464050 607.006287,186.775558 608.812500,172.062820 
	C610.749878,156.282150 604.692444,143.452301 591.283020,135.063232 
	C578.059204,126.790276 564.041016,126.788727 550.718811,135.200027 
	C538.341614,143.014694 532.657532,154.698975 533.090637,170.239319 
M444.227356,196.727051 
	C420.900269,220.054184 397.555573,243.363770 374.282043,266.744232 
	C372.563629,268.470551 370.405029,270.596558 370.157684,272.734222 
	C369.858185,275.322601 370.694489,278.648499 372.278320,280.697479 
	C374.323273,283.343048 377.804504,283.672028 380.862061,281.678925 
	C382.375763,280.692200 383.678375,279.347778 384.969177,278.057831 
	C419.617554,243.432693 454.251953,208.793564 488.888489,174.156555 
	C489.477539,173.567490 490.107147,173.012314 490.643677,172.378540 
	C493.280334,169.264008 493.111267,164.878357 490.272858,162.050034 
	C486.576996,158.367233 482.217987,158.825180 477.261749,163.729324 
	C466.366058,174.510498 455.566315,185.388565 444.227356,196.727051 
M495.607513,340.107635 
	C521.634827,314.080719 547.671631,288.063263 573.666931,262.004395 
	C575.292175,260.375214 576.952942,258.602448 577.963806,256.579926 
	C579.644348,253.217392 579.072693,249.544907 575.698059,247.894775 
	C573.250000,246.697723 569.911621,246.864349 567.050598,247.171310 
	C565.719971,247.314072 564.531799,249.186203 563.360718,250.356125 
	C542.976990,270.720154 522.605774,291.096619 502.232178,311.470825 
	C488.217987,325.485413 474.183655,339.480042 460.218903,353.543732 
	C458.616547,355.157410 456.848572,356.966125 456.136566,359.023346 
	C454.955536,362.435822 456.010681,365.600800 459.275085,367.652618 
	C463.186188,370.110962 466.646881,368.973358 469.641174,366.016235 
	C478.172943,357.590240 486.624451,349.082977 495.607513,340.107635 
M504.899292,244.398666 
	C507.340393,241.896713 509.870697,239.474594 512.200073,236.872604 
	C515.111389,233.620514 514.867432,230.015518 512.115295,226.979355 
	C509.413361,223.998581 505.926453,223.067902 502.288879,225.684464 
	C500.812073,226.746735 499.390686,227.922836 498.104218,229.207504 
	C471.114441,256.160400 444.141449,283.130188 417.193695,310.125092 
	C415.794495,311.526764 414.329865,313.019989 413.453003,314.752625 
	C411.773926,318.070343 412.401459,321.308075 415.189362,323.806244 
	C417.972961,326.300598 421.197479,326.637512 424.361298,324.532318 
	C425.865265,323.531616 427.131470,322.149292 428.423676,320.858063 
	C453.756073,295.545532 479.076385,270.220917 504.899292,244.398666 
z"/>
<path fill="#3B73E0" opacity="1.000000" stroke="none" 
	d="
M128.451813,608.160034 
	C128.327103,599.412048 128.134171,591.094299 128.323288,582.785339 
	C128.348404,581.681580 130.382202,579.631592 131.371017,579.699158 
	C138.962967,580.217896 146.691086,580.437927 154.057724,582.135681 
	C163.501923,584.312195 168.492050,592.842407 167.725861,603.184326 
	C166.953323,613.611816 162.399597,618.776245 151.796432,620.345154 
	C147.928726,620.917358 143.820908,620.766113 139.941635,620.170288 
	C132.240768,618.987244 129.943176,616.382935 128.451813,608.160034 
z"/>
<path fill="#3D74E0" opacity="1.000000" stroke="none" 
	d="
M128.171600,540.352783 
	C128.097717,537.358582 128.890732,535.725403 131.844162,535.820435 
	C136.334015,535.964905 140.855270,535.662659 145.316071,536.068359 
	C153.977417,536.856079 158.586594,541.442078 159.783890,549.887085 
	C161.137665,559.435913 157.844543,566.661987 149.604095,569.171814 
	C143.055267,571.166504 136.018906,571.560425 128.168716,572.831970 
	C128.168716,561.305481 128.168716,551.062622 128.171600,540.352783 
z"/>
<path fill="#3A72E0" opacity="1.000000" stroke="none" 
	d="
M489.851501,575.999878 
	C489.851837,564.018921 490.021790,552.534119 489.764099,541.058960 
	C489.668762,536.812683 491.148468,535.477112 495.214569,535.789551 
	C499.019073,536.081909 502.863739,535.851257 506.690735,535.851562 
	C524.960510,535.853088 536.073853,543.101074 541.750549,560.266785 
	C546.233521,573.822693 546.403687,587.799500 540.981323,601.299072 
	C534.565613,617.271851 513.805176,625.686890 497.919189,619.033630 
	C492.370239,616.709656 489.889801,612.334656 489.875610,606.450073 
	C489.851501,596.466736 489.857941,586.483337 489.851501,575.999878 
z"/>
<path fill="#3D74E0" opacity="1.000000" stroke="none" 
	d="
M703.874146,613.870605 
	C701.372498,615.203430 699.241211,616.556458 696.916077,617.316528 
	C693.324463,618.490601 689.888123,618.003906 687.623840,614.583679 
	C685.215332,610.945679 685.186584,606.752380 688.445374,604.094543 
	C694.245544,599.364014 700.690918,595.424561 707.414917,591.721924 
	C707.534424,599.639771 710.327637,607.375366 703.874146,613.870605 
z"/>
<path fill="#3B73E0" opacity="1.000000" stroke="none" 
	d="
M625.771606,581.991394 
	C619.018127,581.991516 612.737122,581.991516 606.399231,581.991516 
	C607.759155,572.771667 613.390198,566.410278 620.486389,565.723206 
	C627.685120,565.026123 633.874756,571.249023 633.127930,578.393860 
	C632.636414,583.096497 628.973999,581.627930 625.771606,581.991394 
z"/>
<path fill="#3D74E0" opacity="1.000000" stroke="none" 
	d="
M235.915710,568.714844 
	C245.608536,562.745239 254.900574,566.725159 255.829956,576.809570 
	C256.136444,580.135132 254.887695,581.951111 251.462128,581.962280 
	C244.148315,581.986145 236.834351,581.969604 228.962418,581.969604 
	C229.486542,576.481262 231.893387,572.408325 235.915710,568.714844 
z"/>
<path fill="#467AE2" opacity="1.000000" stroke="none" 
	d="
M361.826294,698.875488 
	C364.022003,701.515808 365.926361,703.905151 367.830719,706.294495 
	C367.493042,706.685669 367.155365,707.076904 366.817688,707.468140 
	C359.478973,707.468140 352.140289,707.468140 344.800446,707.468140 
	C344.992157,699.212524 352.020813,695.443298 361.826294,698.875488 
z"/>
<path fill="#467AE2" opacity="1.000000" stroke="none" 
	d="
M295.888916,699.940857 
	C297.496216,702.367126 298.824066,704.535522 300.607117,707.447266 
	C292.121979,707.447266 284.686188,707.447266 277.239441,707.447266 
	C277.563995,698.429688 286.236694,694.849854 295.888916,699.940857 
z"/>
<path fill="#3B73E0" opacity="1.000000" stroke="none" 
	d="
M507.164673,723.766724 
	C498.838287,722.262512 495.259735,717.678589 495.603485,709.449341 
	C495.882385,702.773315 500.276978,697.783203 506.365509,697.228943 
	C513.286072,696.598816 518.401123,701.170288 519.203979,708.702942 
	C520.144409,717.526428 516.136230,722.716553 507.164673,723.766724 
z"/>
<path fill="#EEDA76" opacity="1.000000" stroke="none" 
	d="
M533.046936,169.778931 
	C532.657532,154.698975 538.341614,143.014694 550.718811,135.200027 
	C564.041016,126.788727 578.059204,126.790276 591.283020,135.063232 
	C604.692444,143.452301 610.749878,156.282150 608.812500,172.062820 
	C607.006287,186.775558 598.844238,197.464050 585.005310,202.791153 
	C560.794067,212.110916 534.481995,195.377533 533.046936,169.778931 
M553.996033,152.612122 
	C553.601624,153.144226 553.212463,153.680252 552.812134,154.207840 
	C547.091858,161.746460 547.143982,173.177658 552.934387,180.682709 
	C559.495483,189.186661 570.375549,192.230728 579.614380,188.147263 
	C589.266724,183.881058 594.854797,174.293304 593.403503,164.559479 
	C592.057068,155.529190 587.146729,149.139664 578.610291,146.153748 
	C569.492920,142.964615 561.252197,145.024750 553.996033,152.612122 
z"/>
<path fill="#EBD878" opacity="1.000000" stroke="none" 
	d="
M444.477356,196.477066 
	C455.566315,185.388565 466.366058,174.510498 477.261749,163.729324 
	C482.217987,158.825180 486.576996,158.367233 490.272858,162.050034 
	C493.111267,164.878357 493.280334,169.264008 490.643677,172.378540 
	C490.107147,173.012314 489.477539,173.567490 488.888489,174.156555 
	C454.251953,208.793564 419.617554,243.432693 384.969177,278.057831 
	C383.678375,279.347778 382.375763,280.692200 380.862061,281.678925 
	C377.804504,283.672028 374.323273,283.343048 372.278320,280.697479 
	C370.694489,278.648499 369.858185,275.322601 370.157684,272.734222 
	C370.405029,270.596558 372.563629,268.470551 374.282043,266.744232 
	C397.555573,243.363770 420.900269,220.054184 444.477356,196.477066 
z"/>
<path fill="#F0DB75" opacity="1.000000" stroke="none" 
	d="
M495.357544,340.357666 
	C486.624451,349.082977 478.172943,357.590240 469.641174,366.016235 
	C466.646881,368.973358 463.186188,370.110962 459.275085,367.652618 
	C456.010681,365.600800 454.955536,362.435822 456.136566,359.023346 
	C456.848572,356.966125 458.616547,355.157410 460.218903,353.543732 
	C474.183655,339.480042 488.217987,325.485413 502.232178,311.470825 
	C522.605774,291.096619 542.976990,270.720154 563.360718,250.356125 
	C564.531799,249.186203 565.719971,247.314072 567.050598,247.171310 
	C569.911621,246.864349 573.250000,246.697723 575.698059,247.894775 
	C579.072693,249.544907 579.644348,253.217392 577.963806,256.579926 
	C576.952942,258.602448 575.292175,260.375214 573.666931,262.004395 
	C547.671631,288.063263 521.634827,314.080719 495.357544,340.357666 
z"/>
<path fill="#F0DB75" opacity="1.000000" stroke="none" 
	d="
M504.649231,244.648727 
	C479.076385,270.220917 453.756073,295.545532 428.423676,320.858063 
	C427.131470,322.149292 425.865265,323.531616 424.361298,324.532318 
	C421.197479,326.637512 417.972961,326.300598 415.189362,323.806244 
	C412.401459,321.308075 411.773926,318.070343 413.453003,314.752625 
	C414.329865,313.019989 415.794495,311.526764 417.193695,310.125092 
	C444.141449,283.130188 471.114441,256.160400 498.104218,229.207504 
	C499.390686,227.922836 500.812073,226.746735 502.288879,225.684464 
	C505.926453,223.067902 509.413361,223.998581 512.115295,226.979355 
	C514.867432,230.015518 515.111389,233.620514 512.200073,236.872604 
	C509.870697,239.474594 507.340393,241.896713 504.649231,244.648727 
z"/>
<path fill="#3A71E0" opacity="1.000000" stroke="none" 
	d="
M554.191528,152.301773 
	C561.252197,145.024750 569.492920,142.964615 578.610291,146.153748 
	C587.146729,149.139664 592.057068,155.529190 593.403503,164.559479 
	C594.854797,174.293304 589.266724,183.881058 579.614380,188.147263 
	C570.375549,192.230728 559.495483,189.186661 552.934387,180.682709 
	C547.143982,173.177658 547.091858,161.746460 552.812134,154.207840 
	C553.212463,153.680252 553.601624,153.144226 554.191528,152.301773 
z"/>
</svg>